<?xml version="1.0" standalone="no"?>
<!DOCTYPE svg PUBLIC "-//W3C//DTD SVG 20010904//EN"
 "http://www.w3.org/TR/2001/REC-SVG-20010904/DTD/svg10.dtd">
<svg version="1.0" xmlns="http://www.w3.org/2000/svg"
 width="4096.000000pt" height="2730.000000pt" viewBox="0 0 4096.000000 2730.000000"
 preserveAspectRatio="xMidYMid meet">
<metadata>
Created by potrace 1.16, written by Peter Selinger 2001-2019
</metadata>
<g transform="translate(0.000000,2730.000000) scale(0.100000,-0.100000)"
fill="#000000" stroke="none">
<path d="M0 13650 l0 -13650 9851 0 c9824 0 9851 0 9856 20 3 11 10 17 16 13
6 -4 8 0 4 10 -3 10 -3 17 2 17 5 0 12 10 16 23 l8 22 4 -22 c2 -13 11 -23 19
-23 17 0 18 12 3 27 -8 8 -8 13 0 17 6 4 11 17 10 29 0 21 -1 21 -10 2 -8 -18
-8 -18 -6 5 2 20 7 25 32 26 17 0 33 -5 37 -10 5 -7 8 -5 8 4 0 13 1 13 10 0
8 -13 10 -12 10 4 0 13 -5 16 -16 12 -13 -5 -15 -1 -10 19 5 18 2 27 -9 31 -8
3 -13 10 -10 14 6 9 24 8 42 -3 9 -6 11 -3 7 7 -3 8 -12 17 -20 20 -9 3 -12
10 -9 16 4 6 12 5 21 -5 19 -19 51 -21 37 -2 -9 10 -9 28 -4 86 1 12 4 12 13
3 10 -10 10 -15 -2 -23 -13 -9 -13 -10 0 -6 8 2 15 14 14 26 0 11 5 21 11 21
6 0 11 10 11 22 -1 13 4 23 9 23 15 1 85 75 85 91 0 8 5 14 10 14 6 0 9 4 8 9
-2 5 2 9 7 9 6 0 9 -4 8 -9 -2 -4 4 -6 12 -3 8 4 15 15 15 25 0 10 9 24 20 31
11 7 20 19 20 27 0 23 47 60 59 48 8 -8 11 -7 11 2 0 7 -7 19 -15 27 -8 9 -15
23 -15 32 1 13 4 12 13 -6 10 -17 15 -20 25 -10 14 14 16 32 2 23 -6 -3 -10 1
-10 10 0 9 5 13 10 10 6 -3 14 4 19 17 6 13 10 17 10 10 1 -7 6 -10 12 -6 6 3
9 15 6 25 -3 11 0 19 8 19 7 0 23 9 36 20 20 16 21 19 7 20 -24 0 -23 17 2 25
11 3 20 13 20 21 0 30 39 83 57 77 6 -2 14 1 18 6 3 6 16 11 28 11 l21 0 -22
16 c-29 20 -28 37 1 29 14 -4 18 -3 9 3 -10 7 -10 11 1 21 8 6 21 10 28 9 7
-2 15 5 17 15 3 16 0 18 -18 12 -17 -6 -21 -4 -14 6 4 8 16 20 26 27 10 7 18
19 18 26 0 7 11 23 25 36 14 13 25 29 25 36 0 6 9 14 20 17 11 3 20 11 20 19
0 7 12 22 28 32 15 9 19 15 10 12 -25 -8 -23 -1 12 34 17 17 30 37 30 45 0 7
9 17 20 20 11 3 20 15 20 26 0 10 4 19 10 19 5 0 6 8 3 17 -5 12 -2 15 10 10
13 -5 17 -1 17 16 0 13 16 41 35 63 19 21 35 45 35 52 0 6 7 12 16 12 8 0 13
4 9 9 -3 6 4 15 15 21 12 6 19 18 16 25 -3 9 0 12 9 9 10 -4 12 0 8 15 -3 12
-1 21 6 21 6 0 10 -3 9 -7 -2 -5 2 -9 7 -11 6 -1 11 9 13 23 2 15 10 25 20 25
9 0 25 12 36 26 18 26 18 26 -3 19 -26 -8 -27 6 -1 30 10 9 19 20 18 24 -2 18
3 31 13 31 8 0 8 -5 -1 -15 -15 -18 -4 -20 14 -2 7 7 11 17 9 23 -2 6 3 17 12
24 10 8 15 9 15 1 0 -6 5 -11 11 -11 7 0 9 11 6 26 -4 20 0 28 15 32 15 4 17
7 6 13 -10 7 -8 12 9 24 12 9 20 21 17 28 -2 7 4 23 14 35 14 16 22 18 30 10
9 -9 12 -6 14 13 4 73 14 90 51 84 29 -4 30 -3 10 7 -29 14 -29 19 3 47 14 12
32 37 39 54 16 37 54 81 63 72 4 -3 0 -10 -7 -14 -8 -5 -9 -11 -3 -15 15 -9
24 25 11 41 -10 11 -8 15 10 20 14 4 20 11 16 20 -3 9 8 30 25 49 16 19 30 39
30 45 0 6 8 5 21 -2 16 -8 24 -8 33 2 8 9 8 10 0 6 -8 -5 -13 5 -16 27 -3 29
-1 32 16 28 12 -3 17 -1 13 6 -4 5 -1 12 5 15 10 4 11 7 1 18 -11 11 -13 11
-13 -1 0 -7 -2 -11 -5 -8 -8 8 6 38 17 38 5 0 6 -5 3 -10 -3 -6 3 -10 15 -10
18 0 21 4 16 33 -4 28 -3 30 8 15 16 -22 26 -23 26 -2 0 8 4 12 10 9 6 -4 7 1
3 11 -3 10 -2 15 3 12 5 -4 9 4 9 17 0 13 -3 21 -8 18 -4 -2 -5 6 -3 19 2 13
9 22 16 20 8 -2 10 3 7 12 -7 18 23 76 38 76 6 0 19 21 30 46 11 25 25 49 30
52 6 4 23 27 37 52 15 25 43 63 62 85 19 22 35 45 37 50 1 6 7 15 13 22 6 6
22 26 36 44 14 19 40 50 58 70 17 20 32 40 32 44 0 14 102 145 121 156 11 5
19 15 19 22 0 7 39 54 88 104 93 98 172 191 172 202 0 3 9 12 20 18 17 11 18
10 13 -5 -3 -9 -3 -14 1 -11 4 4 9 17 11 29 2 13 12 31 22 41 10 9 37 37 60
62 23 24 45 42 48 39 3 -3 5 3 5 12 0 27 32 76 49 76 12 0 12 3 3 12 -17 17
-15 31 2 25 10 -4 13 -1 9 9 -3 8 1 14 8 14 8 0 23 15 34 32 11 18 28 44 37
58 23 35 22 55 -4 68 l-23 11 23 7 c13 4 21 12 18 20 -3 7 0 14 6 16 7 3 9 12
5 22 -4 9 -11 14 -17 11 -5 -3 -10 -1 -10 4 0 6 5 11 10 11 6 0 10 7 10 15 0
9 7 18 16 22 12 4 12 8 4 13 -10 6 -10 15 1 39 8 17 18 31 22 31 5 0 5 5 2 10
-4 6 -2 16 3 23 5 7 13 26 16 44 4 17 14 37 22 44 8 6 14 20 14 29 0 10 6 20
13 23 20 7 3 17 -21 10 -12 -3 -22 -12 -22 -20 0 -8 -4 -11 -10 -8 -5 3 -10
16 -10 28 0 29 25 99 32 91 6 -5 34 37 30 44 -7 9 1 22 13 22 8 0 15 6 15 14
0 8 10 22 22 30 12 9 19 16 15 16 -5 0 1 13 12 29 12 16 21 34 21 40 0 6 7 11
15 11 8 0 15 8 14 18 0 10 -3 12 -6 5 -2 -7 -13 -13 -24 -13 -12 0 -19 -7 -19
-20 0 -11 -4 -20 -10 -20 -5 0 -7 8 -4 18 11 33 39 82 47 82 4 0 6 4 3 9 -9
14 4 41 20 41 8 0 11 6 8 15 -4 8 1 17 10 21 9 3 13 10 11 15 -3 4 2 17 12 27
10 10 25 28 33 40 8 12 19 22 26 22 19 0 45 36 38 54 -7 19 7 21 24 4 6 -6 15
-8 19 -4 4 4 1 11 -7 16 -10 6 -11 10 -3 10 7 0 15 11 19 25 3 13 12 29 20 36
21 17 17 31 -6 24 -15 -5 -20 -2 -20 12 -1 15 -3 14 -13 -5 -7 -12 -16 -19
-20 -16 -4 4 -7 0 -7 -9 0 -9 8 -21 18 -27 14 -10 13 -11 -8 -6 -31 6 -45 -2
-64 -38 l-14 -28 -13 23 c-9 17 -9 24 0 27 6 2 11 12 11 23 0 12 5 16 15 13
11 -5 14 0 13 17 -2 16 2 23 10 21 8 -1 11 2 8 7 -4 5 3 16 14 24 11 7 21 25
22 38 3 28 30 51 51 43 8 -3 18 0 23 7 4 8 3 10 -4 5 -15 -9 -15 -1 -2 25 6
10 17 19 25 19 8 0 15 5 15 11 0 7 -7 8 -17 4 -41 -17 -53 -17 -53 -2 0 20 17
31 23 15 3 -8 6 -6 6 5 1 9 5 17 10 17 5 0 9 6 8 13 -1 39 4 48 26 46 28 -3
59 10 51 22 -4 7 9 43 21 57 2 2 13 -1 24 -8 17 -9 26 -7 44 5 21 15 21 16 2
15 -41 -4 -48 -1 -33 14 22 22 58 30 58 13 0 -8 6 -20 13 -26 11 -8 14 -5 14
19 0 18 -6 30 -14 30 -7 0 -13 5 -13 10 0 6 6 10 14 10 8 0 16 3 19 8 2 4 2 1
1 -6 -2 -6 4 -12 12 -12 8 0 13 4 9 9 -7 12 29 33 39 23 4 -3 11 0 15 7 6 9
14 2 27 -25 13 -26 28 -40 47 -45 33 -9 56 -35 57 -64 1 -11 4 -14 7 -7 2 6
14 12 25 12 17 0 18 3 8 15 -6 8 -8 20 -4 27 6 9 3 9 -10 -1 -15 -12 -19 -12
-34 4 -13 13 -14 19 -4 22 18 7 15 30 -5 43 -15 9 -12 10 14 6 31 -5 32 -4 41
37 5 25 4 45 -1 48 -5 4 -4 8 3 11 8 2 10 12 6 25 l-7 21 -26 -24 c-14 -13
-30 -24 -36 -24 -5 0 -7 -11 -5 -25 3 -14 2 -25 -3 -25 -8 0 -24 40 -21 53 1
4 -2 7 -8 7 -5 0 -9 17 -9 38 1 20 3 29 6 19 2 -9 9 -15 14 -11 5 3 6 10 3 16
-4 6 1 8 15 3 21 -6 26 1 13 21 -9 15 -51 23 -140 29 -39 2 -78 7 -85 12 -6 4
-21 7 -32 8 -15 0 -20 7 -21 30 -1 43 6 61 17 43 5 -8 6 1 2 21 -5 30 -4 34
12 28 14 -6 16 -3 12 13 -3 11 -1 18 4 14 5 -3 9 0 9 5 0 6 -7 11 -15 11 -8 0
-15 5 -15 10 0 6 10 10 23 10 17 0 23 6 25 25 1 14 -3 25 -9 25 -5 0 -8 4 -4
10 8 13 35 1 35 -16 0 -8 7 -14 16 -14 8 0 12 -5 9 -10 -3 -6 -3 -20 1 -32 l7
-23 9 25 9 25 17 -35 c9 -19 22 -36 27 -37 6 -1 23 -5 38 -8 22 -6 26 -4 21 9
-9 22 9 20 23 -3 10 -15 10 -21 0 -24 -8 -3 -5 -10 8 -20 11 -8 22 -13 25 -11
2 3 -2 9 -10 15 -13 8 -13 10 0 19 8 5 10 10 4 10 -6 0 -14 18 -18 40 -3 23
-11 38 -16 35 -5 -3 -12 15 -15 40 -4 25 -11 45 -15 45 -5 0 -11 10 -13 23
l-4 22 -2 -22 c-1 -25 -21 -33 -21 -9 0 8 -7 17 -16 20 -24 9 -26 8 -19 -14 8
-24 -16 -28 -35 -5 -10 13 -10 19 4 33 20 23 20 28 0 36 -8 3 -13 2 -9 -3 9
-15 -7 -43 -21 -37 -9 3 -11 -1 -7 -12 5 -13 3 -14 -6 -6 -22 20 35 114 68
114 13 0 13 -2 2 -9 -11 -7 -11 -9 0 -14 10 -4 10 -6 2 -6 -7 -1 -13 -5 -13
-10 0 -5 8 -8 18 -6 17 2 18 12 8 80 -2 17 -7 59 -11 95 -4 36 -10 76 -15 90
-5 14 -12 51 -15 83 -4 32 -9 56 -12 53 -4 -3 -13 0 -21 7 -13 10 -14 8 -9
-13 6 -21 5 -20 -7 4 -9 20 -15 25 -19 15 -3 -9 -6 -6 -6 7 -1 12 -8 27 -16
34 -8 7 -15 19 -15 26 0 8 -9 19 -20 26 -11 7 -20 16 -20 20 0 8 -27 41 -88
104 -32 33 -41 50 -37 64 4 12 2 20 -5 20 -6 0 -8 11 -6 25 3 14 -5 46 -16 72
-20 45 -20 48 -3 79 12 23 22 30 36 27 13 -4 19 0 19 11 0 9 -7 16 -15 16 -9
0 -15 9 -15 25 0 15 -6 25 -15 25 -9 0 -12 -6 -9 -15 9 -22 -9 -18 -30 6 -22
27 -5 42 31 28 21 -8 24 -6 19 8 -3 10 -1 25 4 33 8 12 10 9 10 -11 0 -15 7
-29 15 -33 21 -8 19 -29 -2 -22 -15 5 -15 4 1 -9 25 -19 36 -19 36 -1 0 9 7
12 20 9 29 -8 25 6 -6 17 -14 6 -22 15 -19 21 5 7 15 4 32 -7 33 -21 83 -35
83 -23 0 5 -11 9 -25 9 -14 0 -25 5 -25 10 0 6 -6 10 -14 10 -8 0 -17 11 -20
25 -4 14 -10 24 -14 24 -20 -3 -42 2 -42 10 0 5 8 7 19 4 10 -2 25 3 34 11 17
17 37 21 37 8 0 -16 40 -6 54 14 16 22 17 21 33 -23 12 -34 1 -55 -23 -46 -8
3 -14 0 -14 -6 0 -6 11 -11 25 -11 14 0 25 6 25 13 1 28 15 37 48 28 35 -11
37 -9 20 18 -9 15 -17 17 -40 10 -27 -7 -28 -6 -26 21 2 29 3 29 27 14 22 -15
24 -15 18 0 -10 25 8 19 22 -8 14 -26 59 -31 52 -6 -2 8 -5 28 -7 43 -4 46
-14 77 -24 77 -6 0 -10 5 -10 11 0 5 5 7 10 4 6 -4 10 5 10 20 0 14 -4 24 -9
21 -5 -3 -6 14 -4 38 3 26 1 46 -6 50 -6 4 -11 18 -11 31 0 14 -9 48 -20 77
-11 29 -20 64 -20 79 0 14 -4 29 -9 35 -5 5 -21 45 -36 89 -15 44 -41 109 -58
145 -17 36 -30 68 -29 72 1 4 -7 22 -18 40 -11 18 -29 53 -40 78 -23 50 -60
123 -145 285 -32 61 -85 162 -118 225 -33 63 -86 152 -118 198 -33 45 -79 119
-104 165 -25 45 -73 125 -105 177 -33 52 -79 126 -102 163 -24 37 -48 77 -54
87 -6 11 -17 28 -26 37 -8 10 -34 52 -58 93 -64 111 -288 455 -335 515 -53 67
-211 299 -244 357 -42 74 -37 86 68 162 30 21 59 43 65 48 6 4 45 34 86 64 41
31 91 69 110 85 19 15 70 57 112 91 182 148 296 242 346 286 30 26 59 49 65
51 11 4 17 9 65 51 16 14 42 34 57 45 16 11 63 51 104 88 60 54 107 83 226
143 83 41 179 90 215 109 35 19 72 35 81 35 9 0 31 8 50 17 19 10 58 18 88 20
47 1 59 6 90 37 28 27 61 44 146 72 61 19 124 42 142 50 17 8 35 14 40 14 5 0
42 21 83 47 57 35 102 53 185 75 60 15 121 28 135 28 14 0 86 15 160 34 74 19
154 37 177 41 23 4 43 12 46 18 2 7 1 35 -3 62 -4 28 -4 56 0 64 4 8 4 28 -1
45 -13 46 -11 100 7 152 9 25 17 54 19 63 2 9 10 41 18 72 8 30 13 67 10 82
-3 16 -1 27 6 27 6 0 11 5 11 10 0 6 -7 10 -15 10 -13 0 -21 33 -16 64 1 5 -3
12 -10 16 -7 5 -8 13 -1 26 12 23 5 44 -14 44 -18 0 -18 8 1 27 8 8 12 20 8
26 -4 7 -9 4 -14 -9 -5 -14 -8 -15 -9 -4 -2 8 -2 18 -1 22 0 3 -6 27 -13 52
-8 26 -13 59 -11 74 2 15 -1 32 -7 39 -5 7 -7 17 -3 23 3 5 1 10 -4 10 -22 0
-10 20 12 21 l22 0 -22 9 c-23 9 -23 28 -1 57 5 7 5 14 -2 18 -6 4 -8 15 -5
26 4 11 2 19 -5 19 -7 0 -10 6 -7 13 2 7 0 53 -5 102 -9 87 -16 176 -22 260
-1 22 1 50 5 62 5 13 4 23 -3 25 -32 11 -29 528 4 652 5 22 11 51 13 65 2 14
5 26 6 26 1 0 3 11 4 25 2 14 6 42 9 62 3 22 -1 65 -10 100 -36 146 -53 239
-58 333 -4 55 -9 136 -12 180 -4 44 -7 217 -9 385 -1 168 -5 315 -9 327 -4 12
-9 30 -11 40 -2 10 -11 45 -19 78 -38 151 -44 216 -39 425 3 113 5 361 4 553
-1 280 -4 356 -16 390 -10 27 -17 100 -21 212 -3 94 -12 223 -20 287 -18 148
-18 266 0 309 8 19 19 70 26 114 16 108 21 115 77 115 33 0 73 -12 142 -44 53
-24 123 -51 156 -61 77 -21 203 -80 235 -110 32 -28 184 -114 275 -155 39 -18
93 -42 120 -55 28 -13 79 -26 115 -30 111 -10 224 -26 257 -36 17 -6 44 -12
60 -15 39 -7 142 -39 238 -74 44 -16 150 -54 235 -85 85 -31 209 -84 275 -117
66 -33 147 -68 180 -78 87 -26 186 -65 269 -105 40 -20 98 -40 131 -44 33 -5
87 -16 120 -24 56 -14 263 -32 329 -29 16 1 36 -3 45 -7 9 -5 75 -21 146 -35
72 -15 159 -37 195 -50 36 -13 90 -29 120 -36 105 -23 275 -71 350 -100 42
-16 107 -34 145 -40 115 -19 316 -60 370 -75 28 -8 82 -22 120 -31 39 -9 86
-22 105 -29 69 -24 106 -34 145 -39 22 -3 94 -28 159 -56 234 -101 265 -110
410 -116 72 -3 142 -7 156 -9 13 -3 67 -9 120 -15 150 -17 274 -48 558 -141
205 -67 195 -67 352 -18 64 20 112 31 220 50 30 5 138 9 240 8 102 -1 200 -1
219 0 18 1 50 -4 70 -10 49 -14 366 -29 653 -29 266 0 336 -9 508 -66 58 -19
150 -40 205 -48 82 -11 118 -22 196 -60 53 -25 103 -46 111 -46 9 0 37 -10 63
-21 39 -17 58 -20 104 -14 119 15 326 15 382 0 121 -34 239 -50 604 -81 147
-13 201 -14 238 -5 27 6 53 9 57 6 5 -3 10 -1 12 3 5 13 211 87 308 112 47 12
99 25 115 30 17 4 57 11 89 15 33 4 70 11 82 15 12 5 61 11 110 14 214 15 254
18 349 32 55 9 132 15 170 15 89 0 216 23 325 59 115 38 335 87 445 100 79 10
273 41 435 71 30 6 69 12 85 13 17 2 30 4 30 5 0 1 56 3 125 5 94 2 150 9 225
29 55 14 133 33 174 42 41 9 81 20 90 24 9 5 39 11 66 15 28 3 106 18 175 32
155 32 172 34 291 40 59 2 111 10 135 21 49 21 46 20 184 39 63 9 176 27 250
40 74 13 171 27 215 30 59 4 97 14 143 35 55 27 111 41 199 54 15 2 55 13 88
23 33 11 75 23 94 27 19 4 54 18 77 31 24 13 50 24 58 24 9 0 16 5 16 10 0 6
11 10 25 10 34 0 77 41 81 76 8 76 15 94 39 100 14 3 39 1 57 -6 72 -27 157
-43 245 -47 l92 -4 21 -45 c19 -37 60 -74 85 -74 3 0 5 362 5 805 -1 508 -4
803 -10 800 -6 -4 -10 -1 -10 4 0 6 5 11 10 11 17 0 10 54 -10 80 -25 32 -25
60 0 67 19 5 20 14 20 139 0 83 -4 134 -10 134 -5 0 -10 14 -10 30 0 17 5 30
10 30 6 0 10 21 10 46 0 37 -5 50 -25 66 -22 17 -25 27 -23 73 2 47 4 52 19
44 10 -5 20 -14 22 -21 3 -7 6 53 6 133 1 122 -2 148 -14 153 -17 6 -21 56 -4
56 7 0 5 10 -6 26 -16 24 -16 26 4 31 31 8 29 81 -4 133 -26 41 -32 75 -15 85
6 3 10 1 10 -6 0 -8 4 -8 15 1 11 9 15 33 14 99 -1 61 -4 74 -8 47 -3 -22 -11
-41 -17 -43 -17 -6 -38 44 -38 94 -1 57 16 66 41 21 l18 -33 3 39 c2 22 -1 49
-7 60 -47 95 -60 166 -31 166 12 1 11 3 -3 11 -17 10 -24 39 -9 39 11 0 37
-43 34 -58 -2 -6 1 -20 7 -30 6 -11 10 124 10 402 l1 418 -25 30 c-25 30 -34
82 -15 93 6 4 8 10 5 15 -3 5 4 12 16 15 14 5 18 12 14 23 -22 52 -38 144 -29
166 3 8 12 12 19 9 12 -4 14 65 15 426 0 419 0 432 -20 453 -31 33 -23 67 8
36 9 -9 12 68 12 347 0 211 -4 354 -9 346 -7 -11 -11 -10 -20 7 -22 42 -4 82
21 47 4 -5 8 79 8 188 0 112 -4 196 -9 193 -8 -5 -22 22 -36 72 -3 12 -3 22 0
22 13 0 33 -27 38 -51 2 -13 5 4 6 37 1 54 -2 64 -22 77 -28 18 -36 70 -9 60
9 -4 20 -11 24 -17 4 -6 8 48 8 120 0 126 -1 131 -25 154 -14 13 -25 29 -25
36 0 7 -7 19 -15 28 -21 21 -8 48 19 40 26 -8 21 -2 34 -49 7 -28 10 349 11
1268 l0 1307 -20479 0 -20480 0 0 -13650z m12435 11986 c149 -4 290 -8 315
-11 25 -2 95 -6 155 -9 61 -3 135 -8 165 -11 56 -5 137 -12 245 -21 128 -10
266 -26 400 -45 77 -11 169 -24 205 -30 209 -29 390 -72 585 -135 142 -47 181
-67 233 -120 41 -44 42 -46 43 -117 1 -39 1 -85 0 -102 0 -16 -3 -109 -5 -205
-2 -96 -7 -183 -11 -192 -4 -10 -3 -18 1 -18 5 0 8 -78 7 -172 -2 -160 -5
-1307 -5 -1918 0 -146 0 -274 0 -285 0 -11 0 -33 2 -50 1 -16 1 -221 1 -455
-1 -234 0 -1016 2 -1738 2 -1280 1 -1353 -26 -1326 -3 3 -36 10 -74 15 -37 4
-97 12 -133 18 -155 23 -697 53 -885 49 -77 -1 -146 1 -153 5 -13 9 -387 24
-702 29 l-175 3 3 -59 c2 -41 -1 -62 -10 -67 -19 -12 -120 -11 -157 2 -32 11
-42 29 -16 29 18 0 38 37 31 55 -3 8 -1 17 4 20 19 12 10 23 -22 29 -32 6
-280 20 -345 20 -18 0 -33 3 -33 8 0 5 -6 6 -12 1 -22 -13 -82 -11 -100 4 -11
10 -18 11 -23 4 -11 -19 -57 -12 -77 11 -24 28 -7 36 27 14 14 -9 25 -12 25
-6 0 5 -4 10 -9 10 -6 0 -8 9 -6 20 4 22 -10 36 -20 20 -3 -5 -12 -10 -20 -10
-10 0 -12 7 -5 29 5 19 4 33 -3 40 -6 6 -7 11 -2 11 6 0 4 4 -3 8 -10 7 -8 14
7 34 11 14 17 28 14 32 -3 3 -1 6 5 6 5 0 12 -5 14 -11 2 -7 9 -5 17 5 12 14
11 16 -8 16 -17 0 -21 6 -21 31 0 26 -3 30 -22 27 -18 -2 -24 3 -26 21 -3 18
-6 21 -12 11 -5 -8 -18 -14 -29 -15 -25 -2 -27 4 -4 20 18 13 10 37 -11 29 -7
-3 -16 2 -20 12 -5 13 -2 15 21 10 19 -5 23 -4 14 3 -8 5 -12 18 -8 30 4 17 1
21 -17 21 -19 0 -23 6 -24 32 0 17 -8 35 -16 40 -9 5 -16 16 -16 25 0 14 4 13
20 -5 11 -12 20 -29 20 -39 1 -17 1 -17 11 0 6 10 9 27 6 38 -3 10 -2 19 1 19
4 0 7 20 7 45 l0 44 -48 -4 c-31 -2 -45 0 -41 7 4 5 21 8 40 6 22 -3 35 1 39
10 4 12 8 12 22 1 14 -12 15 -11 9 9 -4 12 -4 22 1 21 20 -4 23 2 8 17 -18 18
-18 18 -34 -13 -6 -13 -17 -23 -23 -23 -7 0 -7 4 1 13 6 8 7 18 3 22 -4 5 -1
5 7 0 10 -6 12 -2 6 14 -3 11 -2 21 3 21 5 0 14 11 20 25 7 15 8 25 2 25 -6 0
-10 9 -10 19 0 11 -5 23 -11 26 -7 5 -4 14 7 26 15 17 15 23 4 44 -7 14 -20
25 -29 24 -11 0 -12 -2 -3 -6 21 -8 13 -23 -13 -23 -23 0 -24 2 -15 20 6 11 8
25 5 30 -3 6 0 10 9 10 8 0 16 -6 19 -12 2 -7 4 7 4 31 0 24 6 47 13 51 9 5 9
9 1 15 -7 4 -9 16 -5 28 6 19 5 20 -8 10 -24 -20 -27 -5 -7 34 27 53 61 86 71
71 5 -9 8 -8 8 5 0 23 -32 22 -50 -3 -8 -11 -18 -20 -22 -20 -12 0 -5 23 10
35 11 9 11 13 -2 24 -8 7 -12 19 -9 26 4 12 7 12 20 0 17 -18 53 -20 53 -4 0
7 -9 9 -21 6 -18 -5 -20 -2 -14 20 5 22 4 25 -8 14 -12 -9 -15 -6 -19 19 -4
23 -1 30 13 30 18 0 21 29 4 43 -6 6 -6 10 3 14 15 6 16 43 1 43 -5 0 -7 -4
-4 -10 3 -5 -1 -10 -11 -10 -13 0 -15 -6 -10 -30 3 -16 1 -30 -4 -30 -17 0
-18 15 -4 55 7 22 14 50 14 63 0 13 6 22 15 22 20 0 19 5 -7 41 -23 30 -23 31
-4 45 17 12 18 14 3 14 -21 0 -22 16 -2 24 8 3 15 12 15 21 0 8 5 15 10 15 6
0 10 -5 10 -11 0 -5 5 -7 10 -4 16 10 1 25 -24 25 -27 0 -42 36 -24 57 6 7 7
13 2 13 -5 0 -2 5 6 10 9 6 10 10 3 10 -6 0 -15 -5 -19 -12 -5 -8 -10 -6 -15
8 -11 28 -10 54 2 54 6 0 8 -9 4 -21 -6 -18 -4 -20 17 -14 12 4 23 8 23 9 0 0
8 17 17 37 16 35 15 49 -4 49 -4 0 -7 -4 -5 -9 1 -5 -1 -9 -5 -10 -5 -1 -8 1
-8 4 0 3 0 14 0 25 0 11 5 19 11 17 6 -1 13 3 16 10 2 7 -3 10 -14 7 -11 -3
-23 3 -31 16 -10 17 -10 20 3 20 15 0 15 18 0 53 -10 25 4 36 19 14 18 -24 31
-21 32 8 1 16 -3 25 -13 25 -8 0 -12 4 -9 9 4 5 -5 4 -19 -2 -14 -7 -25 -18
-25 -26 0 -11 -4 -9 -15 5 -19 25 -19 38 0 30 10 -3 15 1 15 12 0 10 6 24 12
30 10 10 10 15 -2 22 -12 7 -13 13 -3 27 6 10 17 17 23 15 8 -2 10 3 6 13 -3
9 -6 21 -6 27 0 6 -7 5 -17 -3 -15 -12 -16 -12 -10 4 4 11 1 17 -9 17 -13 0
-13 2 -2 13 28 25 62 40 66 28 5 -16 19 -14 26 4 9 25 -4 48 -20 34 -7 -6 -18
-8 -24 -4 -6 4 -20 -3 -31 -16 -10 -12 -22 -19 -26 -16 -3 4 6 16 20 28 32 24
35 43 7 34 -11 -3 -20 -2 -20 3 0 6 11 13 24 16 13 3 31 17 40 31 16 24 16 26
-9 35 -30 11 -35 34 -5 25 11 -4 20 -2 20 4 0 10 -16 15 -46 14 -12 0 -12 4 1
45 6 17 12 21 27 16 14 -4 19 -2 16 7 -3 8 -21 18 -41 24 -38 11 -47 23 -25
36 20 13 28 11 22 -6 -4 -9 0 -15 8 -15 20 0 21 55 2 71 -20 16 -17 29 7 29
14 0 18 4 12 13 -9 15 -14 36 -14 60 0 9 -4 15 -10 12 -5 -4 -9 1 -9 9 0 10
-6 13 -17 9 -11 -3 -7 2 7 13 14 10 30 19 35 19 6 0 11 12 13 28 2 19 9 27 22
27 10 0 22 5 25 10 4 6 1 9 -6 8 -7 -2 -15 6 -17 17 -7 33 -19 38 -41 16 -28
-28 -33 -27 -26 7 l6 27 -15 -30 c-14 -27 -15 -28 -10 -5 3 14 0 38 -5 54 -9
21 -8 31 4 42 8 9 15 11 15 5 0 -5 -4 -13 -10 -16 -6 -4 -5 -13 2 -25 16 -25
28 -16 28 21 0 16 5 29 10 29 6 0 10 -5 10 -11 0 -8 5 -8 15 1 20 17 19 40 -2
56 -17 13 -17 15 -1 24 10 6 15 17 11 27 -6 14 -7 14 -19 -1 -12 -16 -13 -16
-24 4 -6 11 -9 26 -6 33 2 7 5 4 5 -5 2 -36 48 -5 49 32 0 44 2 49 22 55 11 3
20 11 20 16 0 6 -9 7 -20 4 -21 -7 -24 1 -20 57 1 22 -2 27 -14 22 -9 -3 -16
-1 -16 5 0 6 4 11 10 11 5 0 7 7 4 15 -6 16 -45 16 -56 0 -4 -5 -8 3 -8 19 0
24 2 27 15 16 9 -7 17 -11 18 -9 1 2 17 32 34 65 31 58 31 62 13 67 -10 3 -22
18 -26 33 -4 16 -13 35 -21 42 -7 7 -13 19 -12 25 0 9 2 8 6 0 9 -23 23 -13
23 16 0 16 6 31 13 34 9 3 7 9 -6 24 -24 28 -8 38 20 11 19 -18 23 -19 23 -5
0 9 -4 17 -10 17 -5 0 -10 5 -10 10 0 7 6 7 19 0 26 -13 31 -13 31 4 0 8 -9
18 -20 21 -11 3 -20 11 -20 16 0 5 -11 9 -25 9 -21 0 -24 4 -20 32 4 33 22 51
42 43 7 -2 17 5 23 15 11 21 -3 29 -15 10 -3 -5 -11 -10 -17 -10 -7 0 -6 6 2
15 7 8 9 15 5 15 -4 0 -2 6 4 13 6 8 7 17 3 21 -4 4 -7 17 -8 29 -1 12 -4 29
-8 38 -5 10 -1 19 8 22 11 4 18 -1 22 -18 7 -29 25 -34 21 -7 -6 43 -67 64
-67 24 0 -13 -2 -14 -12 -3 -10 11 -10 14 0 18 6 3 12 11 12 19 0 8 5 14 11
14 7 0 9 10 5 24 -6 26 1 56 13 56 4 0 6 -15 5 -32 -2 -18 -1 -24 3 -13 3 11
13 25 22 32 15 11 15 12 -1 18 -10 4 -15 12 -12 17 4 6 0 14 -7 19 -7 4 -10
12 -5 16 5 4 11 2 13 -4 8 -22 25 -14 21 9 -5 33 -24 32 -44 -1 -23 -39 -31
-39 -31 -1 0 18 6 30 14 30 18 0 17 28 -2 47 -8 8 -13 19 -10 24 4 5 4 9 1 9
-3 0 -12 -13 -20 -29 -9 -16 -24 -31 -36 -34 -24 -6 -24 -6 -3 38 9 19 24 36
32 36 13 1 12 2 -1 6 -25 6 -22 24 3 30 18 5 20 11 16 39 -4 25 -2 34 9 34 17
0 18 12 2 29 -11 11 -10 13 5 8 9 -4 17 -2 17 4 0 6 4 8 8 5 10 -6 52 47 52
64 0 19 -18 10 -25 -12 l-7 -23 -7 25 c-6 25 -14 29 -59 35 -30 3 -41 15 -14
15 21 0 27 12 24 52 -1 15 2 16 24 6 21 -10 27 -9 35 3 13 20 6 45 -12 41 -9
-3 -7 4 7 20 23 25 43 84 24 73 -5 -3 -10 -13 -10 -21 0 -8 -4 -14 -10 -14 -5
0 -10 5 -10 11 0 5 -4 7 -10 4 -5 -3 -10 -1 -10 4 0 6 -6 11 -14 11 -8 0 -17
4 -20 8 -2 4 7 8 22 7 17 0 28 6 30 18 2 10 -3 17 -12 17 -19 0 -22 20 -3 21
10 0 10 2 0 6 -7 2 -13 9 -13 15 0 6 7 8 15 5 18 -8 28 8 29 45 1 20 -4 28
-16 28 -10 0 -18 7 -18 15 0 7 -7 18 -16 23 -9 5 -14 14 -10 20 9 15 48 -8 42
-25 -3 -7 1 -10 10 -6 16 6 18 19 4 28 -6 4 -10 12 -9 18 3 26 -2 37 -16 37
-8 0 -15 2 -15 4 0 2 -3 11 -6 20 -4 11 -1 16 10 16 9 0 16 5 16 11 0 6 -9 8
-20 4 -12 -4 -20 -2 -20 5 0 7 8 14 18 16 14 4 16 14 13 52 -2 26 -6 49 -10
52 -3 3 -12 15 -19 28 -10 19 -10 23 3 28 8 4 25 4 38 0 16 -4 26 1 35 14 10
17 7 23 -23 46 -37 28 -39 46 -5 37 24 -6 25 0 4 32 -9 13 -12 29 -8 36 13 22
13 77 -1 83 -19 7 -14 94 6 107 12 7 11 9 -2 9 -17 0 -34 28 -24 38 2 3 7 -3
11 -12 15 -39 45 -10 43 42 0 23 -2 24 -8 8 -4 -11 -15 -20 -24 -22 -13 -2
-14 2 -5 22 6 13 16 24 22 24 6 0 3 5 -7 11 -20 12 -13 31 8 22 8 -3 15 0 15
6 0 7 -7 14 -15 17 -18 7 -19 34 -4 68 7 14 17 22 25 19 8 -3 14 1 14 11 0 9
-6 13 -14 10 -27 -10 -25 34 3 62 14 15 21 24 14 21 -18 -11 -33 24 -21 47 8
15 8 21 -1 24 -13 4 -15 72 -2 72 6 0 13 -4 16 -10 4 -6 11 -5 19 3 20 18 10
27 -30 27 -19 0 -34 5 -34 10 0 6 -7 10 -15 10 -20 0 -19 16 1 24 19 7 34 -1
34 -18 0 -8 13 -13 31 -14 45 -1 35 30 -14 41 -40 10 -49 26 -17 34 11 3 17 9
15 14 -3 4 5 13 17 20 29 15 38 28 38 57 0 13 -5 22 -13 20 -7 -2 -12 2 -12 7
0 6 9 10 19 9 18 -1 18 0 1 13 -13 9 -21 10 -25 3 -4 -7 -11 -5 -20 5 -11 13
-9 15 11 16 13 1 28 1 33 0 4 -1 13 3 20 8 6 5 49 9 96 10 193 1 230 3 230 14
0 7 4 7 12 -1 15 -15 105 -16 114 0 4 7 3 8 -4 4 -19 -12 -35 3 -21 20 14 17
9 17 -25 4 -24 -9 -25 -8 -20 20 6 26 4 29 -18 25 -16 -3 -27 2 -36 15 -7 12
-8 20 -2 20 5 0 10 7 10 15 0 8 5 15 10 15 6 0 10 -7 10 -15 0 -8 -5 -15 -11
-15 -5 0 -7 -4 -4 -10 3 -5 22 -10 41 -10 23 0 33 4 28 11 -3 6 -17 9 -29 7
-21 -4 -22 -3 -14 26 11 39 11 59 1 52 -5 -3 -22 -2 -38 3 -28 7 -28 8 -7 15
22 7 22 8 7 32 -9 13 -12 24 -6 24 6 0 8 8 5 18 -3 13 6 22 37 36 46 20 47 23
8 30 -18 3 -27 0 -25 -7 1 -7 -12 -13 -33 -14 -19 0 -25 1 -12 4 35 7 26 23
-10 16 -18 -3 -35 -7 -37 -9 -2 -2 -10 1 -18 7 -7 6 -22 9 -33 6 -11 -3 -20
-2 -20 2 0 11 12 21 19 17 3 -2 128 -7 276 -10z m-1252 -662 c9 -3 17 -13 17
-22 0 -13 9 -17 33 -17 47 0 48 -33 2 -74 -43 -37 -103 -44 -112 -12 -5 18 -7
18 -39 5 -42 -18 -84 -9 -84 17 0 12 -7 19 -20 19 -53 0 -18 71 44 90 29 8
119 5 159 -6z m-930 -112 c32 -5 34 -13 7 -37 -24 -22 -62 -85 -51 -85 4 0 24
18 45 40 41 45 85 57 65 18 -18 -37 -82 -98 -100 -98 -10 0 -20 -6 -23 -12 -3
-7 -4 -4 -3 7 1 11 7 23 12 27 7 5 7 8 0 8 -17 0 -32 -14 -49 -48 -9 -18 -25
-38 -36 -45 -11 -6 -20 -17 -20 -24 0 -7 -4 -13 -10 -13 -5 0 -10 7 -10 15 0
8 -5 24 -12 34 -15 24 2 81 47 155 31 53 69 80 95 69 8 -3 27 -8 43 -11z m845
-92 l32 0 0 -184 c0 -154 3 -187 16 -200 8 -9 22 -16 29 -16 8 0 34 -14 59
-31 51 -34 58 -57 26 -89 -24 -24 -57 -26 -90 -3 -23 15 -23 14 3 -14 17 -18
27 -39 25 -50 -2 -10 2 -23 10 -28 10 -8 11 -17 3 -38 -14 -37 -44 -35 -58 3
-6 17 -7 30 -2 30 17 0 9 18 -10 23 -17 4 -19 2 -10 -20 14 -37 -4 -82 -33
-83 -3 0 -15 16 -27 35 -12 20 -49 53 -90 80 -98 62 -111 77 -111 126 0 22 -5
50 -11 61 -6 11 -13 91 -15 180 -4 158 -4 159 20 183 14 14 35 25 48 25 13 0
30 5 38 11 8 5 37 8 65 5 28 -3 65 -6 83 -6z m405 -118 c4 -29 9 -172 8 -227
-1 -54 -12 -127 -21 -144 -20 -39 -135 -111 -176 -111 -37 0 6 60 85 118 l31
24 0 188 c0 171 2 189 18 192 35 8 51 -3 55 -40z m-1379 -132 c24 -9 26 -14
26 -69 0 -40 5 -63 13 -68 12 -7 27 -58 30 -104 1 -9 6 -15 12 -13 18 6 78
-30 81 -48 3 -23 1 -23 -46 7 -22 14 -42 25 -44 25 -8 0 18 -75 29 -83 5 -5
-5 -6 -24 -3 -27 5 -31 4 -22 -8 10 -12 23 -76 15 -76 -10 0 -90 63 -97 76
-13 22 3 37 33 30 l28 -5 -19 39 c-12 24 -19 61 -19 95 0 36 -4 54 -10 50 -6
-4 -8 -11 -5 -16 4 -5 1 -9 -4 -9 -16 0 -41 68 -41 113 0 24 7 48 17 59 19 21
15 20 47 8z m1007 -687 c0 -21 3 -32 6 -25 7 17 49 33 68 26 43 -17 -10 -104
-64 -104 -16 0 -33 5 -36 10 -7 11 -51 3 -77 -15 -37 -25 -76 -85 -70 -107 l5
-22 8 22 c11 28 57 58 70 45 7 -7 5 -15 -6 -26 -16 -17 -48 -97 -38 -97 3 0 1
-6 -6 -13 -6 -8 -7 -17 -2 -23 5 -5 12 -27 15 -49 3 -22 11 -72 18 -112 9 -53
9 -81 1 -108 -13 -43 0 -95 24 -95 12 0 15 8 10 40 -3 22 -4 40 -2 40 2 0 11
3 20 7 14 5 16 2 11 -15 -6 -18 -1 -21 36 -27 54 -9 78 -22 78 -40 0 -9 11
-25 25 -37 14 -12 25 -27 25 -34 0 -15 -35 -28 -50 -19 -6 4 -10 3 -9 -2 5
-28 -3 -62 -17 -67 -8 -3 -29 1 -46 10 -36 19 -45 14 -18 -11 21 -19 27 -45
10 -45 -5 0 -9 -5 -7 -11 5 -24 -19 -18 -37 9 -10 16 -50 46 -87 67 -87 49
-109 73 -116 126 -5 33 -2 45 12 55 16 12 17 14 2 20 -15 5 -17 30 -17 215 0
133 4 209 10 209 6 0 10 10 10 23 0 32 17 51 73 77 26 13 47 27 47 32 0 4 16
25 35 47 19 21 35 44 35 50 0 6 11 11 25 11 22 0 25 -4 26 -37z m-32 -242 c9
-6 11 -18 7 -34 -3 -14 -2 -28 4 -32 5 -3 7 -25 4 -48 -3 -23 -6 -69 -7 -101
-2 -62 -18 -85 -50 -73 -14 5 -16 25 -15 137 1 99 5 135 15 146 17 16 23 17
42 5z m382 -91 c10 -6 19 -21 18 -33 0 -12 3 -56 7 -97 12 -118 7 -227 -12
-259 -14 -24 -61 -61 -77 -61 -3 0 2 15 11 33 16 31 19 77 21 360 1 37 4 67 7
67 3 0 14 -5 25 -10z m-268 -892 c-7 -42 -27 -65 -69 -80 -19 -7 -34 -16 -34
-21 0 -5 -20 -29 -44 -52 -41 -41 -43 -46 -46 -107 -3 -83 -3 -138 0 -223 1
-38 -1 -87 -5 -108 -7 -35 -5 -40 31 -72 22 -19 44 -34 50 -35 5 0 20 -13 32
-30 13 -16 29 -30 37 -30 8 0 15 -9 15 -20 0 -27 -22 -25 -70 5 -22 14 -43 25
-48 25 -20 0 -73 66 -83 104 -7 22 -13 90 -15 150 -2 60 -6 111 -9 114 -3 3
-5 -11 -5 -32 0 -47 -15 -76 -39 -76 -25 0 -31 36 -31 185 0 99 3 129 18 154
9 17 21 31 25 31 4 0 25 18 46 40 37 39 81 54 81 28 0 -7 -17 -24 -38 -37 -54
-36 -62 -49 -62 -105 l0 -51 32 68 c20 41 41 70 53 73 11 4 42 29 68 56 43 45
90 78 109 78 4 0 5 -15 1 -32z m254 -75 c12 -3 29 -13 37 -22 19 -21 27 -124
17 -209 -4 -35 -4 -65 0 -68 11 -7 -5 -56 -23 -67 -8 -6 -23 -7 -32 -4 -16 7
-19 37 -21 237 0 50 -6 86 -18 109 -21 42 -21 45 1 36 9 -4 27 -10 39 -12z
m-271 -55 c7 -11 -12 -30 -67 -68 -20 -14 -21 -24 -20 -102 2 -77 0 -88 -18
-97 -28 -16 -33 -2 -32 89 1 91 9 115 47 151 42 38 77 49 90 27z m-81 -417 c0
-39 3 -45 32 -59 55 -26 54 -82 -2 -82 -56 0 -111 63 -74 85 6 5 4 11 -7 19
-13 10 -15 21 -10 50 6 33 10 37 34 34 25 -3 27 -7 27 -47z m-169 -57 c1 -61
5 -80 23 -102 12 -15 24 -35 28 -44 3 -10 10 -18 17 -18 15 0 88 -39 101 -53
6 -7 19 -17 30 -23 43 -24 21 -74 -31 -74 -24 0 -41 31 -28 51 8 14 -58 76
-101 95 -71 32 -95 75 -95 174 0 63 2 69 23 72 12 2 24 2 27 0 2 -2 5 -37 6
-78z m210 -508 c7 -20 -80 -127 -122 -149 -19 -11 -45 -32 -59 -49 -23 -27
-25 -39 -26 -124 -2 -109 -1 -103 -16 -129 -22 -37 -33 -2 -35 107 -2 101 -1
108 25 142 16 20 37 41 49 47 28 15 111 79 119 91 4 6 4 19 2 29 -10 37 50 70
63 35z m74 -70 c0 -28 -43 -79 -80 -93 -25 -10 -47 -29 -60 -50 -13 -22 -30
-35 -50 -39 -17 -4 -29 -12 -28 -20 2 -7 -1 -12 -7 -11 -15 3 -6 69 12 89 9
10 22 18 30 18 7 0 41 29 76 65 50 51 67 63 85 58 12 -3 22 -10 22 -17z
m28490 -475 c0 -6 -5 -13 -10 -16 -8 -5 -8 -11 0 -20 6 -7 8 -19 5 -27 -3 -8
4 -23 16 -34 13 -10 19 -13 15 -6 -4 6 -4 12 -1 12 3 0 13 -16 21 -35 19 -45
19 -121 0 -128 -18 -7 -37 14 -39 42 -1 12 -5 21 -10 21 -5 0 -7 6 -4 14 5 13
-20 45 -30 39 -21 -16 -38 34 -19 57 7 8 11 21 9 28 -6 15 23 62 37 62 6 0 10
-4 10 -9z m-28364 -2295 c6 -16 92 -52 114 -47 34 6 -9 -21 -46 -30 -77 -17
-351 -2 -380 22 -6 5 -14 6 -17 2 -4 -3 -7 -1 -7 5 0 7 7 12 15 12 14 0 19 11
16 36 -2 18 298 17 305 0z m1078 -49 c10 -37 7 -92 -6 -105 -8 -8 -8 -15 -1
-24 20 -25 40 -758 48 -1758 10 -1319 16 -1977 20 -2425 3 -258 7 -738 10
-1065 21 -2529 25 -2875 30 -3110 3 -118 7 -451 10 -740 3 -289 8 -591 11
-672 8 -201 -2 -325 -28 -339 -27 -14 -45 3 -51 49 -3 20 -10 55 -16 78 -5 22
-12 61 -15 87 -3 39 0 50 16 61 16 12 19 21 14 57 -3 24 -8 213 -11 419 -3
206 -7 503 -10 660 -6 297 -9 522 -20 1245 -3 237 -8 498 -11 580 -2 83 -7
328 -9 545 -4 372 -8 619 -20 1415 -3 182 -7 447 -9 590 -2 143 -7 269 -11
279 -6 13 -5 17 3 12 8 -5 10 13 7 66 -3 40 -8 303 -10 583 -4 424 -9 673 -15
730 0 6 0 39 0 75 0 36 -2 227 -5 425 -4 198 -7 367 -7 375 0 8 1 35 3 60 1
25 -1 56 -5 69 -6 18 -5 22 5 16 9 -6 11 -3 6 9 -21 55 -23 1504 -3 1603 5 22
2 40 -8 55 -20 31 -3 106 28 117 29 11 53 2 60 -22z m1225 0 c22 -14 52 -29
67 -31 30 -6 40 -13 31 -22 -3 -3 -83 -9 -176 -12 -128 -4 -171 -2 -171 7 0
13 63 71 89 83 33 16 119 2 160 -25z m2530 -3363 c22 -16 23 -22 19 -93 -3
-42 -7 -82 -9 -90 -3 -9 12 -20 41 -30 97 -36 168 -84 201 -137 22 -36 105
-256 145 -384 12 -41 33 -100 45 -130 20 -51 21 -65 15 -215 -4 -88 -13 -187
-20 -220 -11 -54 -14 -60 -37 -60 -17 0 -29 -7 -36 -22 -10 -21 -9 -23 12 -23
29 0 39 -14 31 -46 -9 -34 -35 -30 -51 10 l-14 33 -103 -3 c-65 -2 -97 0 -87
6 8 5 50 10 92 11 l76 2 -3 156 c-3 171 -12 208 -55 217 -51 11 -61 16 -61 26
0 6 12 8 31 4 17 -3 42 -6 54 -6 12 0 39 -11 59 -25 45 -30 56 -31 56 -5 0 22
-54 199 -75 246 -8 17 -33 82 -55 145 -76 213 -113 298 -143 329 -34 34 -36
35 -63 15 -10 -8 -35 -15 -54 -15 l-35 0 25 -19 c23 -18 23 -21 10 -46 -13
-24 -13 -28 4 -40 12 -9 18 -26 18 -52 0 -21 4 -45 8 -53 4 -8 10 -33 13 -55
11 -73 19 -110 31 -145 13 -36 8 -81 -10 -87 -16 -5 -31 36 -49 129 -34 181
-38 199 -46 204 -20 12 -21 -36 -4 -163 15 -106 17 -138 7 -151 -33 -46 -44
-104 -23 -125 8 -8 14 -6 24 7 17 23 47 11 47 -19 0 -13 -7 -30 -15 -39 -8 -8
-15 -24 -15 -35 0 -27 -36 -37 -59 -17 -25 23 -32 20 -28 -11 5 -33 -10 -66
-25 -57 -6 4 -9 1 -6 -7 3 -8 -2 -19 -10 -25 -14 -10 -14 -13 0 -32 8 -12 17
-20 19 -18 2 2 5 -35 6 -82 2 -47 7 -90 12 -95 6 -6 28 -5 58 2 62 14 325 12
320 -3 -2 -6 -17 -12 -33 -14 -16 -1 -63 -10 -104 -20 -63 -14 -132 -17 -417
-17 -188 0 -345 3 -349 8 -12 12 4 20 39 19 49 -2 159 9 153 15 -3 3 -1 14 4
23 7 13 6 19 -3 23 -7 3 -12 22 -11 48 2 82 0 79 47 79 36 -1 40 -2 25 -14 -9
-7 -17 -21 -17 -32 -1 -42 -1 -50 2 -86 1 -20 6 -40 9 -43 10 -10 140 -7 151
4 5 5 5 16 -1 27 -11 21 -10 53 2 72 4 7 2 19 -4 27 -14 17 -5 35 16 35 8 0
13 -4 10 -8 -3 -5 1 -9 9 -9 24 0 17 27 -10 37 -24 9 -25 12 -20 77 5 75 13
137 20 169 2 11 -1 29 -8 40 -14 21 -14 31 -3 89 11 54 34 91 49 76 17 -17 47
-13 48 7 1 9 2 26 3 37 1 11 -7 35 -16 53 -10 18 -18 41 -19 50 -1 9 -5 1 -9
-18 -5 -22 -5 -40 2 -47 13 -16 3 -43 -16 -43 -18 0 -24 21 -30 103 -3 33 -7
62 -11 65 -3 3 -56 6 -118 6 l-112 1 -3 31 c-3 33 -26 51 -72 56 -14 2 -25 9
-25 18 0 8 -8 21 -17 28 -25 18 -22 30 7 44 32 14 32 24 0 32 -14 4 -30 17
-35 29 -5 12 -9 16 -9 10 -1 -7 -12 -13 -26 -13 -54 0 -102 -73 -181 -278 -13
-34 -35 -92 -50 -130 -14 -37 -30 -83 -35 -102 -6 -19 -17 -49 -24 -65 -27
-59 -46 -185 -29 -185 4 0 38 11 76 25 38 14 75 25 81 25 11 0 36 -47 51 -92
3 -11 15 -18 32 -18 17 0 28 -6 31 -19 3 -13 11 -17 24 -14 10 3 19 0 19 -6 0
-6 -7 -11 -16 -11 -13 0 -14 -3 -5 -14 26 -31 -56 -31 -106 0 -20 13 -23 23
-23 79 0 73 1 73 -78 50 -48 -15 -58 -24 -52 -50 1 -5 2 -35 1 -65 -1 -30 3
-80 9 -110 5 -30 11 -72 12 -92 1 -21 7 -38 13 -38 6 0 21 -7 33 -16 22 -15
22 -17 6 -35 -9 -10 -21 -19 -25 -19 -16 0 -39 33 -49 70 -8 29 -17 41 -35 46
-13 3 -26 13 -29 22 -10 35 -10 88 1 107 7 12 8 26 3 36 -15 27 -7 278 8 288
7 4 12 12 10 17 -1 5 4 27 11 49 27 79 162 421 184 464 26 53 83 97 138 106
49 8 56 23 35 75 -23 57 -27 93 -12 112 12 16 80 29 236 44 36 4 99 10 140 14
132 13 184 11 209 -6z m-429 -863 c5 -11 10 -29 10 -40 0 -11 9 -22 20 -26 12
-4 21 -18 25 -38 3 -18 10 -54 16 -82 20 -99 9 -120 -60 -111 -55 7 -71 20
-71 57 0 15 -4 30 -9 33 -8 5 9 76 19 76 3 0 5 26 4 58 0 78 23 116 46 73z
m340 -562 c6 -11 11 -53 10 -92 -1 -40 5 -139 14 -222 24 -218 24 -250 2 -258
-16 -6 -79 49 -82 73 -7 47 -26 106 -38 115 -21 17 -27 46 -32 170 -3 66 -9
134 -13 151 -7 25 -5 35 10 48 11 9 27 16 37 16 9 0 24 5 32 10 24 16 49 11
60 -11z m99 -93 c9 -11 9 -15 0 -18 -10 -3 -9 -14 3 -44 8 -21 18 -57 22 -79
4 -22 19 -56 32 -77 14 -20 24 -45 23 -55 -2 -10 2 -34 9 -53 11 -35 46 -162
62 -230 7 -29 38 -148 80 -305 12 -46 138 -473 155 -527 44 -138 60 -323 31
-347 -10 -8 -16 -9 -21 -1 -3 6 -11 8 -16 4 -17 -10 -37 27 -69 131 -17 55
-38 120 -46 145 -8 25 -24 79 -35 120 -11 41 -24 90 -29 108 -26 85 -32 112
-45 180 -8 40 -17 76 -20 81 -3 5 -10 31 -15 58 -23 117 -50 224 -74 303 -34
108 -48 171 -77 348 -19 115 -21 147 -11 162 15 24 16 50 2 50 -7 0 -7 6 -2
18 5 9 7 23 5 30 -6 17 22 15 36 -2z m129 -1618 c15 -30 20 -364 9 -648 -9
-226 -19 -273 -59 -283 -18 -5 -25 -42 -9 -49 15 -5 22 -166 9 -188 -10 -16
-9 -22 5 -33 21 -15 28 -117 25 -332 -1 -66 -1 -162 0 -212 2 -69 -1 -93 -10
-93 -10 0 -10 -2 0 -8 15 -10 6 -42 -12 -42 -6 0 -16 11 -23 25 -6 14 -7 23
-2 19 5 -3 9 6 9 20 0 13 -6 27 -12 30 -10 5 -10 7 -1 12 13 6 11 10 -20 68
-14 28 -14 32 10 63 14 18 21 33 16 33 -5 0 -9 24 -8 53 0 44 -3 52 -17 51
-19 -2 -24 11 -10 20 9 5 7 71 -3 86 -4 6 -11 8 -16 5 -12 -8 -12 -62 0 -70 6
-3 6 -18 0 -37 -6 -21 -5 -34 2 -39 7 -4 4 -9 -6 -13 -12 -4 -14 -10 -7 -19 5
-6 8 -21 6 -32 -2 -11 -5 -34 -7 -50 -2 -17 -9 -40 -16 -50 -11 -18 -12 -18
-7 7 3 14 2 28 -3 30 -9 3 -26 187 -23 252 1 22 -2 44 -8 50 -5 7 -5 27 0 49
5 22 4 39 -1 43 -6 3 -7 14 -4 25 4 10 2 26 -3 36 -8 13 -6 21 6 31 14 11 14
14 3 19 -11 5 -11 7 0 14 11 7 11 9 -1 9 -9 0 -16 9 -17 20 -1 11 4 19 10 17
6 -1 13 9 15 22 2 14 0 21 -7 17 -6 -4 -13 8 -17 29 -3 19 -10 35 -15 35 -5 0
-9 4 -9 10 0 5 7 7 15 4 8 -4 15 -1 15 5 0 6 -5 11 -11 11 -5 0 -7 5 -3 11 3
6 2 14 -4 18 -5 3 -12 22 -14 41 -1 19 -7 38 -12 41 -4 4 -5 17 -1 30 7 21 8
21 20 5 17 -22 25 -8 29 49 3 51 14 70 23 37 3 -12 10 -22 15 -22 5 0 6 -5 3
-10 -4 -6 -12 -7 -18 -3 -7 3 -5 -2 5 -13 9 -10 18 -32 20 -48 1 -16 8 -31 14
-33 18 -6 29 170 14 207 -7 17 -10 44 -6 60 3 19 1 30 -6 30 -7 0 -5 7 4 18
27 31 30 54 8 74 -14 13 -20 31 -20 63 0 47 -7 75 -20 75 -13 0 -17 -32 -9
-62 4 -15 4 -30 1 -32 -4 -2 -6 -38 -5 -79 1 -52 -3 -81 -13 -94 -13 -16 -14
-15 -12 18 2 36 -33 86 -52 74 -5 -3 -17 7 -27 22 -10 15 -21 31 -26 34 -15
11 13 21 39 15 19 -5 24 -3 24 14 0 11 -4 20 -10 20 -18 0 -22 47 -5 73 18 28
65 43 65 21 0 -22 18 -16 26 8 4 13 6 49 5 81 -2 76 32 177 77 223 38 39 64
43 80 12z m-617 -492 c5 -6 4 -14 -1 -21 -6 -8 -5 -30 4 -64 13 -52 11 -101
-5 -101 -5 0 -9 -4 -9 -10 0 -5 7 -7 15 -4 16 7 21 -11 6 -20 -12 -8 0 -413
12 -433 3 -5 3 -28 0 -53 -7 -75 -8 -170 -2 -170 8 0 6 -51 -3 -65 -3 -5 -4
-26 -1 -45 3 -19 5 -63 5 -97 1 -35 4 -63 8 -63 5 0 6 -9 3 -19 -3 -10 0 -27
5 -38 7 -13 7 -30 -1 -56 -13 -39 -37 -51 -37 -17 0 11 -4 20 -8 20 -17 0 -21
-13 -11 -32 14 -27 -2 -44 -28 -30 -20 12 -19 10 -23 187 -1 68 -7 123 -12
126 -6 4 -7 12 -2 20 9 15 12 129 4 129 -5 0 -7 84 -9 315 0 50 -1 124 -1 165
-1 41 3 93 8 115 4 22 5 55 1 73 -3 18 -3 35 2 38 5 3 7 10 4 15 -4 5 -1 9 5
9 6 0 9 4 5 9 -3 6 2 14 12 20 14 7 18 21 17 63 -1 54 17 101 24 62 2 -10 8
-23 13 -28z m-27 -1353 c4 -9 3 -20 -2 -25 -11 -11 18 -79 31 -71 4 3 3 -4 -4
-15 -7 -12 -16 -19 -20 -16 -4 2 -10 0 -14 -6 -3 -5 1 -10 9 -10 8 0 16 -8 19
-17 3 -14 6 -11 11 10 8 28 20 35 31 17 8 -13 -5 -61 -15 -55 -5 3 -11 1 -15
-5 -3 -5 -1 -10 4 -10 6 0 11 -7 11 -16 0 -12 -6 -15 -24 -10 -25 6 -51 -14
-28 -22 7 -2 9 -15 5 -33 -3 -19 -1 -29 6 -29 8 0 11 -16 9 -45 -2 -28 -8 -45
-15 -45 -12 0 -14 8 -18 62 0 9 -4 20 -8 24 -11 11 -9 54 3 54 5 0 -2 21 -15
46 -19 36 -22 50 -14 66 6 11 8 26 5 34 -3 8 1 14 11 14 12 0 13 3 4 14 -7 8
-11 35 -10 60 2 36 7 46 20 46 9 0 20 -8 23 -17z m621 -62 c7 -13 9 -320 1
-328 -3 -3 -12 -1 -20 6 -9 7 -15 8 -18 2 -1 -6 -9 -7 -16 -2 -17 10 -23 64
-9 73 8 5 8 17 -1 41 -19 53 -16 59 21 52 26 -5 29 -4 14 5 -10 6 -14 16 -10
23 4 7 -1 5 -12 -3 -17 -14 -18 -13 -11 35 4 28 12 52 17 53 5 2 9 12 9 21 0
28 22 42 35 22z m-1016 -1606 c5 3 14 -8 19 -24 9 -25 7 -34 -14 -62 -34 -47
-97 -74 -134 -59 -28 12 -60 62 -60 94 0 12 7 14 29 10 24 -5 35 -1 53 19 27
28 55 37 81 25 9 -5 21 -6 26 -3z m1528 -15 c3 -11 9 -20 14 -20 5 0 9 -7 9
-15 0 -8 5 -15 10 -15 11 0 14 -59 4 -84 -8 -20 -63 -21 -89 -2 -21 15 -46
108 -34 127 4 7 14 9 22 6 9 -3 21 1 27 9 17 20 31 18 37 -6z m-3277 -184 c19
-11 30 -21 23 -23 -9 -3 -9 -11 -2 -31 12 -31 12 -32 -7 -53 -9 -10 -13 -35
-11 -80 l2 -64 -37 -12 c-66 -22 -300 -36 -374 -24 -35 7 -68 9 -73 7 -13 -8
-244 -10 -267 -3 -19 7 -21 14 -17 58 2 29 -1 57 -7 64 -7 8 -9 23 -5 35 4 11
2 20 -4 20 -6 0 -11 9 -11 20 0 11 7 20 16 20 8 0 13 4 9 9 -10 17 16 24 109
27 158 6 230 13 263 24 60 21 128 29 243 26 90 -1 123 -6 150 -20z m-2303 -29
c68 -3 108 -9 120 -18 11 -9 14 -10 9 -1 -10 17 -1 15 19 -4 12 -13 19 -14 30
-4 17 14 45 -2 45 -26 0 -8 5 -14 10 -14 6 0 10 6 10 14 0 20 38 27 54 10 18
-17 30 -18 20 -1 -6 10 -4 10 7 0 7 -7 24 -13 37 -13 18 0 23 -4 18 -16 -3 -9
-6 -21 -6 -27 0 -7 -4 -6 -10 3 -7 11 -10 7 -10 -17 0 -20 5 -33 13 -33 6 -1
2 -6 -11 -13 l-23 -13 21 -24 c11 -12 20 -26 20 -30 0 -13 -93 -21 -101 -9 -5
8 -8 6 -10 -6 -4 -18 -5 -18 -21 -1 -10 10 -18 13 -18 8 0 -12 -346 -9 -372 2
-13 6 -14 14 -8 37 5 17 8 68 7 114 -2 85 4 99 38 88 6 -2 56 -5 112 -6z m555
-33 c7 -6 21 -14 31 -17 10 -4 16 -11 12 -16 -3 -5 -1 -12 5 -16 6 -3 10 4 10
17 0 18 5 14 22 -20 19 -36 20 -45 8 -52 -8 -5 -18 -6 -22 -4 -17 11 -7 -8 17
-30 28 -26 33 -41 10 -32 -9 3 -15 0 -15 -10 0 -8 5 -12 10 -9 6 3 10 -3 10
-14 0 -12 -6 -19 -17 -19 -10 0 -44 -2 -76 -6 -32 -4 -74 -4 -93 0 l-36 7 6
105 c3 58 7 106 9 107 46 22 87 26 109 9z m827 7 c3 -1 -4 -7 -14 -15 -16 -11
-17 -16 -7 -29 11 -13 11 -19 0 -36 -7 -12 -16 -21 -20 -21 -4 0 -6 -13 -4
-30 2 -16 0 -30 -3 -30 -4 0 -7 -8 -7 -19 0 -12 6 -17 18 -13 22 5 23 -2 2
-22 -8 -9 -31 -16 -50 -16 -27 0 -34 4 -34 20 0 11 -5 19 -11 18 -6 -2 -14 3
-16 10 -3 7 1 10 10 7 11 -5 13 2 12 28 -1 19 -5 40 -9 46 -4 7 -5 18 -2 26 3
8 1 15 -5 15 -6 0 -9 7 -6 15 4 8 1 18 -6 22 -23 14 93 32 152 24z m-238 -15
c0 5 5 -4 10 -21 5 -19 5 -31 -1 -33 -6 -2 -8 -8 -4 -13 8 -13 -10 -11 -25 4
-11 10 -12 7 -7 -15 3 -15 2 -29 -2 -32 -5 -3 -8 -15 -6 -28 1 -13 3 -27 3
-31 1 -5 6 -5 11 -2 6 3 10 -1 10 -10 0 -9 -4 -14 -9 -11 -5 3 -12 -1 -15 -10
-4 -9 -13 -14 -22 -10 -8 3 -12 2 -9 -4 7 -11 -9 -11 -45 0 l-25 7 28 11 c34
14 35 25 2 16 -22 -5 -25 -3 -25 19 0 19 6 26 30 31 35 6 40 23 8 22 -17 -1
-23 5 -23 19 0 11 -6 25 -14 31 -10 8 -11 13 -3 18 7 4 16 5 21 1 5 -3 12 -1
15 4 4 5 2 12 -4 16 -6 4 -8 11 -4 16 3 5 9 7 13 5 4 -3 21 -1 37 3 17 5 34 4
42 -2 6 -5 12 -6 13 -1z m1146 -351 c13 -13 17 -44 13 -110 0 -11 -5 -33 -10
-50 -5 -16 -12 -46 -15 -65 -2 -19 -14 -71 -26 -115 -11 -44 -23 -90 -26 -102
-3 -13 -9 -23 -14 -23 -5 0 -9 -8 -10 -17 0 -15 -2 -15 -9 2 -8 18 -9 17 -9
-6 -1 -15 -8 -32 -16 -39 -8 -7 -15 -20 -15 -29 0 -20 -39 -46 -62 -42 -11 1
-18 -4 -18 -13 0 -9 -4 -16 -10 -16 -5 0 -10 5 -10 11 0 6 -7 9 -15 5 -10 -3
-15 1 -15 13 0 10 -11 39 -24 64 -17 31 -21 47 -13 50 9 3 9 7 0 18 -10 13
-32 79 -39 119 -1 8 -10 34 -18 58 -9 24 -14 48 -10 53 3 5 0 16 -6 24 -6 8
-9 19 -5 25 3 5 3 15 -1 22 -15 23 -9 83 10 112 28 42 78 58 201 66 123 8 151
6 172 -15z m-450 -2217 c-6 -50 -106 -369 -141 -449 -16 -38 -36 -52 -61 -43
-19 8 -19 16 3 56 9 18 28 60 41 93 13 33 29 74 36 90 7 17 25 62 40 100 50
132 80 205 84 205 2 0 1 -24 -2 -52z"/>
<path d="M12170 25065 c-7 -8 -10 -15 -6 -15 4 0 -1 -12 -11 -26 -17 -26 -117
-80 -140 -76 -8 2 -10 -3 -7 -13 5 -11 0 -18 -15 -22 -11 -3 -21 -12 -21 -19
0 -8 -7 -14 -15 -14 -8 0 -15 -4 -15 -9 0 -18 26 -29 60 -27 53 5 56 6 41 15
-7 5 -10 14 -6 20 5 9 11 9 23 -1 13 -11 15 -11 10 4 -4 10 -1 19 7 22 23 8
29 -13 10 -34 -17 -19 -17 -20 1 -26 38 -12 43 -13 46 -5 3 8 94 71 102 71 3
0 20 15 38 33 35 34 53 65 63 110 5 27 4 28 -27 25 -21 -2 -33 -9 -34 -18 -2
-36 -42 -100 -63 -100 -6 0 -11 -4 -11 -10 0 -5 -5 -10 -11 -10 -6 0 -17 -7
-25 -15 -18 -17 -44 -20 -44 -5 0 6 13 19 30 28 16 9 30 20 30 25 0 4 6 7 14
7 14 0 26 26 32 73 3 23 0 27 -20 27 -13 0 -29 -7 -36 -15z"/>
<path d="M11980 24790 c0 -5 -11 -10 -25 -10 -18 0 -23 -4 -18 -16 3 -9 6 -39
7 -68 1 -45 4 -51 24 -54 13 -2 30 2 38 9 11 9 18 9 26 1 14 -14 58 -16 58 -3
0 17 34 22 42 6 18 -31 68 -11 68 27 0 10 5 18 10 18 6 0 3 11 -6 25 -8 13
-13 29 -9 35 3 5 -4 14 -17 19 -23 8 -120 8 -148 -1 -8 -3 -12 -3 -7 -1 4 3 5
9 1 14 -7 12 -44 12 -44 -1z"/>
<path d="M12213 23890 c-12 -5 -29 -25 -37 -44 -10 -25 -27 -41 -53 -53 -21
-10 -44 -23 -51 -30 -6 -6 -21 -15 -32 -18 -11 -3 -20 -11 -20 -17 0 -6 -3 -8
-6 -5 -10 9 -54 -45 -54 -65 0 -10 -4 -18 -8 -18 -5 0 -9 -7 -9 -15 0 -8 4
-15 9 -15 4 0 8 -7 8 -16 0 -10 -6 -14 -15 -10 -19 7 -19 -8 0 -24 10 -8 14
-32 14 -83 -1 -40 4 -83 9 -98 6 -15 6 -31 1 -41 -6 -10 -6 -19 0 -23 6 -3 8
-12 5 -19 -3 -7 6 -30 20 -50 l25 -37 -4 41 c-2 22 0 40 4 40 4 0 7 10 7 21
-1 12 5 24 13 27 10 3 12 -1 8 -17 -3 -11 -2 -21 2 -21 4 0 6 -22 5 -49 -2
-79 5 -102 37 -115 16 -6 29 -16 29 -23 0 -8 12 -19 27 -26 15 -6 38 -22 52
-34 13 -13 32 -23 42 -23 11 0 19 -7 19 -15 0 -8 5 -15 10 -15 18 0 11 38 -10
53 -11 8 -17 17 -14 20 4 3 -5 9 -19 12 -14 4 -33 15 -43 26 -9 10 -22 19 -29
19 -22 0 -48 38 -43 65 3 14 2 25 -2 25 -4 0 -5 11 -2 25 2 15 0 25 -7 25 -7
0 -9 5 -5 12 12 18 14 42 18 153 1 55 6 108 10 118 5 9 4 17 -1 17 -15 0 -13
38 3 44 8 3 14 14 14 25 0 13 18 30 55 51 86 49 135 108 135 160 0 34 -37 25
-45 -10 -7 -33 -58 -90 -80 -90 -7 0 -15 -5 -17 -11 -2 -6 -16 -11 -31 -11
-15 0 -26 -2 -23 -5 2 -2 -7 -16 -20 -30 -14 -15 -22 -33 -20 -40 3 -7 -1 -13
-10 -13 -8 0 -13 -4 -10 -9 3 -5 -1 -12 -10 -15 -8 -3 -12 -2 -9 4 3 5 -1 7
-9 4 -25 -9 -14 40 14 68 14 14 41 33 61 42 57 26 109 86 113 129 2 20 3 37 2
36 0 0 -11 -4 -23 -9z"/>
<path d="M12285 23685 c-27 -14 -58 -25 -69 -25 -27 0 -66 -57 -66 -96 0 -17
-6 -36 -12 -42 -10 -10 -10 -15 -1 -20 11 -7 24 -56 26 -104 0 -16 6 -28 12
-28 6 0 9 15 7 40 -2 22 1 47 7 54 7 8 14 26 17 40 3 21 1 24 -13 20 -14 -5
-15 -4 -4 4 7 5 14 24 16 42 2 24 10 37 31 49 16 9 31 19 34 22 3 3 19 11 37
18 31 13 49 36 34 45 -4 3 -29 -6 -56 -19z"/>
<path d="M12203 21455 c-12 -14 -59 -47 -105 -74 -48 -28 -90 -62 -100 -78
-21 -35 -27 -175 -9 -197 7 -9 8 -17 2 -20 -12 -8 -14 -281 -2 -323 9 -31 39
-73 53 -73 26 0 138 -86 162 -125 17 -26 33 -42 41 -38 19 7 11 62 -12 78 -10
7 -35 27 -57 44 -21 17 -45 31 -52 31 -8 0 -14 5 -14 10 0 6 -5 10 -11 10 -6
0 -16 6 -23 13 -35 34 -40 64 -43 217 -5 286 -4 323 6 333 6 6 11 18 11 27 1
13 66 62 110 81 25 11 70 64 75 87 5 29 -5 27 -32 -3z"/>
<path d="M12273 21391 c-12 -11 -33 -23 -47 -27 -14 -3 -26 -9 -26 -13 0 -4
-19 -17 -42 -29 -55 -27 -81 -58 -75 -88 2 -13 0 -21 -4 -18 -5 3 -9 2 -10 -3
-6 -105 -5 -222 4 -216 6 4 7 1 2 -7 -4 -6 -7 -49 -6 -94 1 -44 2 -89 2 -98 0
-10 7 -18 15 -18 8 0 14 -6 14 -14 0 -14 81 -76 99 -76 4 0 21 -11 37 -25 31
-26 49 -28 49 -4 0 8 -10 15 -23 17 -13 2 -20 8 -16 14 4 6 2 8 -3 5 -6 -4
-13 0 -17 8 -3 8 -11 15 -18 15 -7 0 -26 14 -42 30 -16 16 -33 27 -37 24 -10
-6 -10 -15 -13 250 l-3 199 41 41 c23 23 56 53 75 66 63 46 74 56 70 69 -3 8
-11 6 -26 -8z"/>
<path d="M12312 21305 c-16 -13 -32 -22 -36 -18 -3 3 -6 2 -6 -4 0 -6 -15 -14
-33 -17 -52 -10 -75 -79 -58 -172 5 -24 5 -44 1 -44 -9 0 -13 -126 -4 -152 9
-31 34 -21 36 15 0 17 0 39 -1 47 -2 8 -3 66 -3 128 0 131 2 136 96 187 31 17
56 36 56 43 0 19 -15 15 -48 -13z"/>
<path d="M12223 20314 c-7 -3 -10 -11 -8 -17 3 -7 -3 -21 -13 -32 -17 -20
-116 -85 -129 -85 -4 0 -24 -18 -45 -41 -41 -44 -43 -58 -41 -211 1 -32 -3
-58 -8 -58 -5 0 -4 -12 2 -26 5 -15 9 -57 8 -93 0 -36 1 -96 3 -133 4 -80 13
-92 125 -158 53 -31 82 -56 95 -80 23 -45 54 -48 51 -5 -3 33 -47 77 -128 124
-95 56 -93 51 -91 338 1 198 4 253 15 267 8 9 52 41 98 72 63 41 88 63 99 90
19 46 7 64 -33 48z"/>
<path d="M12317 20303 c-4 -3 -7 -16 -7 -28 0 -22 -74 -105 -94 -105 -5 0 -24
-11 -42 -25 -18 -14 -37 -25 -43 -25 -5 0 -20 -17 -33 -37 -19 -32 -24 -56
-28 -146 -3 -59 -3 -107 0 -107 3 0 5 -46 4 -103 -1 -149 11 -166 172 -257 47
-27 88 -84 81 -112 -4 -14 -1 -18 11 -16 13 3 16 12 14 38 -5 49 -27 86 -62
107 -16 9 -30 21 -30 25 0 4 -5 8 -11 8 -27 0 -109 72 -117 103 -4 18 -7 118
-6 224 3 218 5 226 83 270 92 53 150 120 151 176 0 17 -30 24 -43 10z"/>
<path d="M12480 20207 c0 -6 21 -23 46 -36 80 -43 91 -67 92 -203 0 -65 3
-121 6 -126 3 -5 1 -23 -3 -40 -5 -17 -7 -33 -4 -36 3 -3 6 -60 6 -126 0 -118
10 -157 22 -82 3 20 8 48 11 62 3 14 5 30 4 35 0 6 -2 105 -4 221 -2 143 -7
222 -15 243 -23 53 -161 130 -161 88z"/>
<path d="M12336 20143 c-4 -5 -38 -24 -74 -44 -37 -20 -72 -46 -78 -58 -11
-22 -10 -370 1 -418 4 -15 25 -33 63 -52 31 -17 71 -39 87 -50 32 -22 55 -27
55 -11 0 16 -43 51 -97 77 -29 14 -55 33 -58 42 -10 25 -15 289 -7 351 7 54 8
54 67 88 64 36 95 60 95 74 0 10 -44 11 -54 1z"/>
<path d="M24720 5864 c0 -8 5 -12 10 -9 6 3 10 2 10 -4 0 -12 -57 -41 -81 -41
-10 0 -38 -6 -61 -14 -24 -8 -74 -18 -113 -21 -38 -4 -75 -12 -82 -17 -7 -5
-16 -7 -21 -4 -4 2 -27 0 -51 -6 -28 -7 -38 -14 -30 -19 7 -4 16 -6 19 -4 12
8 189 24 332 30 55 2 102 6 104 8 2 1 0 28 -3 60 -4 38 -10 57 -19 57 -8 0
-14 -7 -14 -16z"/>
<path d="M36793 1523 c-29 -11 41 -50 102 -56 39 -4 127 -33 192 -63 17 -7 40
-14 51 -14 11 0 43 -11 70 -25 28 -14 56 -25 64 -25 8 0 18 -4 24 -9 5 -5 28
-11 52 -15 32 -5 42 -3 42 7 0 10 8 13 25 9 14 -2 31 0 38 6 15 13 40 11 58
-5 18 -15 51 -19 67 -9 8 5 20 -1 32 -16 11 -13 19 -17 20 -10 0 9 7 11 23 6
12 -4 33 -8 47 -9 14 -1 39 -8 55 -15 17 -7 38 -12 48 -11 9 1 17 -3 17 -8 0
-6 6 -11 14 -11 8 0 17 -6 19 -12 3 -8 6 -7 6 4 1 9 6 20 13 24 7 5 9 2 5 -9
-4 -11 -2 -14 9 -10 9 3 14 -1 15 -13 0 -11 3 -14 6 -6 6 15 39 16 48 2 4 -6
16 -8 26 -5 11 4 26 2 34 -5 11 -9 12 -7 8 9 -6 24 -4 25 30 12 19 -8 27 -6
31 5 3 8 12 14 21 14 8 0 15 7 15 16 0 11 5 14 16 10 23 -9 37 3 23 20 -10 12
-10 14 0 12 15 -4 23 60 10 82 -4 8 -9 12 -9 9 0 -4 -15 -1 -33 5 -21 7 -66 9
-121 6 -48 -4 -119 -5 -159 -4 -151 5 -267 13 -275 18 -5 3 -22 2 -38 -3 -16
-4 -43 -5 -59 -1 -17 4 -39 6 -50 4 -11 -2 -25 2 -32 8 -10 8 -13 7 -13 -3 0
-9 -3 -10 -8 -3 -6 9 -41 15 -168 28 -11 1 -24 5 -30 8 -5 3 -35 9 -66 13 -32
4 -58 10 -58 14 0 4 -28 6 -62 5 -38 -1 -74 4 -90 12 -26 14 -81 17 -105 7z"/>
<path d="M24650 570 c0 -5 -15 -10 -34 -10 -19 0 -41 -7 -49 -15 -8 -8 -17
-11 -21 -8 -3 3 -14 -5 -25 -18 -19 -23 -20 -23 -21 -4 -1 11 -4 14 -7 8 -2
-7 -11 -13 -18 -13 -8 0 -18 -6 -22 -14 -4 -7 -20 -29 -35 -47 -60 -77 -98
-130 -98 -138 0 -5 -7 -14 -15 -21 -8 -7 -25 -33 -37 -59 -12 -25 -24 -49 -26
-53 -9 -19 48 -6 58 13 15 26 47 59 60 59 5 0 14 9 20 20 6 11 17 20 25 20 8
0 15 5 15 10 0 6 7 10 15 10 8 0 15 9 15 20 0 11 7 20 15 20 15 0 48 27 144
121 36 35 48 54 49 77 0 18 -1 32 -4 32 -2 0 -4 -4 -4 -10z"/>
</g>
</svg>
