<?xml version="1.0" standalone="no"?>
<!DOCTYPE svg PUBLIC "-//W3C//DTD SVG 20010904//EN"
 "http://www.w3.org/TR/2001/REC-SVG-20010904/DTD/svg10.dtd">
<svg version="1.0" xmlns="http://www.w3.org/2000/svg"
 width="736.000000pt" height="736.000000pt" viewBox="0 0 736.000000 736.000000"
 preserveAspectRatio="xMidYMid meet">
<metadata>
Created by potrace 1.16, written by Peter Selinger 2001-2019
</metadata>
<g transform="translate(0.000000,736.000000) scale(0.100000,-0.100000)"
fill="#000000" stroke="none">
<path d="M0 7025 c0 -332 0 -335 21 -335 11 0 17 -4 14 -10 -3 -5 0 -7 7 -5 8
3 18 -6 25 -24 9 -25 8 -34 -7 -51 -9 -11 -27 -20 -39 -20 l-21 0 0 -1156 c0
-921 3 -1154 13 -1148 9 6 9 4 -1 -7 -14 -16 -16 -69 -2 -69 6 0 10 4 10 9 0
5 12 16 26 26 20 13 28 14 34 5 5 -8 12 -5 25 11 l17 24 -7 -32 c-6 -31 -5
-33 20 -33 23 0 26 -2 15 -15 -7 -8 -8 -15 -3 -15 15 0 5 -73 -12 -82 -8 -5
-15 -17 -15 -26 0 -13 -2 -14 -9 -4 -4 7 -12 12 -17 11 -37 -7 -72 3 -82 24
-8 16 -11 -323 -11 -1232 l-1 -1254 98 8 c114 10 530 15 597 7 60 -6 39 -22
-30 -22 -62 0 -71 -6 -80 -50 -13 -63 -26 -69 -23 -11 l3 53 -283 2 -282 1 0
-802 0 -803 3680 0 3680 0 0 2600 c0 2182 -2 2600 -14 2600 -17 0 -86 65 -86
80 0 7 -7 33 -15 59 -8 25 -20 101 -26 169 -7 67 -13 121 -15 120 -1 -2 -10
-94 -18 -205 -16 -199 -21 -233 -36 -233 -17 0 -30 100 -41 322 -16 324 5 678
40 678 14 0 20 -36 36 -194 8 -82 17 -151 20 -154 3 -3 5 1 5 9 0 14 18 164
24 204 3 18 19 82 32 127 3 10 9 17 13 15 4 -1 24 4 44 12 l37 15 0 568 0 568
-1895 0 -1894 0 1 -493 c1 -271 -2 -498 -6 -505 -11 -18 -51 -14 -70 7 -15 17
-17 61 -16 502 l1 484 -730 3 -731 2 0 -164 c0 -111 -4 -167 -11 -172 -8 -5
-10 40 -7 165 3 159 2 171 -14 171 -17 0 -18 -13 -18 -159 0 -97 -4 -162 -10
-166 -6 -3 -19 -3 -30 0 -19 6 -20 15 -20 166 l0 159 -955 0 -955 0 0 -335z
m4569 171 c18 -21 30 -149 31 -317 0 -110 4 -159 13 -168 6 -8 7 -11 2 -8 -6
3 -11 -3 -11 -14 0 -15 12 -8 52 34 29 30 74 71 100 92 27 22 63 51 79 66 17
15 57 44 89 63 52 31 68 36 120 36 34 -1 75 -7 91 -14 27 -12 21 -13 -56 -8
-105 6 -119 0 -254 -109 -117 -94 -186 -159 -221 -211 -46 -66 -20 -60 29 7
63 85 207 211 275 242 45 20 166 43 151 29 -2 -2 -28 -13 -57 -24 -43 -17 -51
-18 -40 -5 7 9 -15 1 -51 -16 -35 -18 -61 -35 -58 -37 3 -3 23 4 46 16 55 27
52 18 -3 -15 -68 -40 -75 -58 -10 -25 33 16 66 30 74 29 8 0 -7 -11 -35 -25
-123 -63 -279 -191 -317 -258 -5 -10 26 18 70 63 44 44 84 81 89 81 4 0 -35
-44 -88 -99 -98 -102 -226 -267 -215 -279 4 -3 63 51 133 121 120 121 233 217
256 217 6 0 8 -2 6 -4 -2 -2 -40 -34 -84 -71 -84 -71 -120 -114 -44 -53 52 41
75 56 66 41 -9 -14 -106 -88 -115 -88 -13 0 -282 -236 -282 -247 0 -6 -3 -9
-6 -5 -4 3 8 24 25 45 17 22 31 42 31 45 0 3 13 34 29 69 15 35 31 72 35 83 4
10 7 171 6 357 0 324 4 378 29 378 5 0 14 -6 20 -14z m-2622 -493 c14 -34 15
-144 9 -1120 -4 -728 -3 -1083 4 -1083 6 0 18 16 27 35 9 19 20 32 25 29 4 -3
26 10 47 28 42 36 273 168 294 168 7 0 17 4 22 8 6 5 21 6 35 1 21 -6 22 -7 5
-8 -11 -1 -42 -13 -70 -27 -53 -26 -38 -24 62 7 73 22 82 23 106 4 18 -13 17
-14 -13 -30 -17 -9 -40 -13 -51 -10 -11 4 -52 -3 -92 -14 -39 -11 -98 -27
-131 -36 -32 -9 -57 -18 -55 -19 2 -2 29 0 59 4 30 4 69 5 85 2 25 -5 18 -8
-42 -18 -62 -11 -149 -41 -141 -49 2 -2 28 3 58 11 30 8 65 14 79 14 37 0 98
-21 120 -42 11 -10 25 -18 31 -18 5 0 10 -5 10 -11 0 -7 -7 -8 -17 -4 -10 4
-46 15 -81 23 -77 20 -144 8 -240 -39 -70 -35 -116 -83 -153 -159 -14 -29 -33
-52 -44 -56 -22 -5 -55 -69 -56 -107 l0 -22 -12 23 c-16 34 5 123 43 182 16
26 30 57 30 69 0 14 4 20 11 15 8 -4 8 -1 2 12 -11 22 -18 2206 -8 2247 10 37
23 34 42 -10z m1587 -625 c35 -55 38 -125 31 -726 -3 -323 -8 -648 -10 -722
l-4 -135 -39 -40 c-21 -22 -47 -55 -57 -72 -26 -44 -35 -41 -35 7 0 34 5 43
31 59 l32 19 -2 783 c0 431 2 798 5 816 7 38 27 43 48 11z m1031 -528 l29 -30
1 -528 0 -527 -22 45 c-12 25 -23 61 -23 80 0 19 -7 54 -15 78 -13 37 -15 112
-13 478 2 239 6 434 9 434 3 0 18 -14 34 -30z m167 -210 c27 -17 53 -28 58
-25 5 3 26 -5 46 -19 l36 -24 -23 -15 c-13 -9 -43 -24 -67 -34 -43 -18 -44
-18 -37 -58 8 -51 13 -55 34 -27 13 18 25 23 51 20 45 -4 48 -21 6 -36 -62
-23 -53 -82 14 -82 57 0 86 -15 98 -49 9 -27 7 -35 -29 -86 -21 -31 -39 -60
-39 -65 0 -6 -6 -10 -14 -10 -13 0 -46 56 -46 80 0 11 -42 121 -74 195 -26 57
-76 230 -76 259 0 11 13 6 62 -24z m496 -611 c25 -23 47 -72 82 -185 18 -55
46 -127 64 -160 38 -72 63 -81 102 -35 48 58 74 33 74 -71 0 -44 -9 -55 -60
-80 l-35 -16 44 6 c30 3 42 2 37 -6 -20 -32 24 -53 66 -31 11 6 65 12 120 13
l100 1 -31 -27 c-17 -15 -31 -32 -31 -37 0 -29 -157 -44 -281 -27 l-56 8 -6
-32 c-6 -28 -8 -30 -22 -17 -8 9 -12 22 -9 30 7 20 -13 32 -31 17 -19 -15 -52
-4 -60 21 -6 19 -25 18 -25 -2 0 -6 4 -7 10 -4 6 4 9 -4 7 -17 -1 -17 3 -23
18 -23 11 0 20 -6 20 -13 0 -7 7 -17 15 -22 12 -7 12 -12 2 -22 -9 -9 -12 -9
-12 5 0 9 -4 17 -10 17 -5 0 -10 -4 -10 -10 0 -5 -4 -10 -10 -10 -5 0 -10 7
-10 15 0 18 -16 20 -23 3 -3 -7 -6 -4 -6 7 -1 17 -3 18 -12 5 -8 -12 -9 -10
-4 7 4 16 1 23 -15 28 -13 4 -20 15 -20 31 0 14 -4 22 -10 19 -5 -3 -10 2 -10
12 0 13 -3 15 -8 5 -6 -8 -13 1 -21 30 -7 24 -20 59 -28 78 -14 31 -16 33 -23
15 -4 -11 -4 -25 1 -31 5 -6 7 -13 4 -16 -3 -2 2 -27 10 -55 8 -27 17 -65 19
-84 2 -20 9 -33 16 -31 8 2 11 -4 7 -18 -3 -11 -1 -18 5 -14 5 3 12 -3 15 -15
3 -12 10 -21 15 -21 5 0 6 -10 3 -22 -6 -17 -4 -20 10 -14 16 6 16 4 4 -11
-12 -15 -12 -16 3 -11 21 8 26 -4 35 -90 l7 -67 8 45 c5 25 9 52 10 61 1 9 8
15 15 12 17 -7 16 -11 -2 -29 -9 -10 -14 -32 -13 -59 1 -36 3 -41 15 -30 7 8
13 17 13 22 0 5 9 9 20 9 11 0 20 -4 20 -8 0 -4 -6 -8 -14 -8 -28 0 -27 -20 3
-50 26 -27 30 -29 34 -13 3 13 5 12 6 -6 1 -24 1 -24 17 -5 15 19 15 18 11 -3
-4 -19 -1 -23 18 -23 13 0 31 -3 40 -6 11 -5 16 -2 15 7 -5 30 0 38 23 33 12
-3 30 -7 39 -8 37 -5 31 -18 -7 -14 -30 2 -40 -1 -40 -12 0 -11 11 -15 40 -15
28 0 47 -7 63 -22 26 -27 42 -29 42 -8 0 22 21 18 27 -5 3 -11 9 -17 14 -14 5
3 6 -2 3 -10 -4 -11 0 -16 11 -16 9 0 26 -12 37 -26 16 -20 23 -23 30 -12 8
10 9 9 4 -4 -3 -10 -1 -20 4 -23 6 -4 10 -17 10 -31 0 -13 5 -24 10 -24 6 0
10 -11 10 -25 0 -17 6 -25 18 -25 13 0 14 -2 3 -9 -11 -7 -10 -11 5 -20 12 -6
14 -11 5 -11 -10 0 -11 -3 -3 -13 6 -7 11 -22 11 -32 0 -11 0 -74 1 -140 0
-66 -4 -142 -11 -170 -6 -27 -11 -63 -10 -78 0 -15 -4 -25 -8 -22 -5 2 -11 -4
-14 -15 -3 -10 -1 -20 3 -22 7 -3 -3 -28 -46 -122 -8 -16 -12 -31 -10 -35 3
-4 -4 -18 -15 -31 -17 -22 -19 -23 -19 -6 0 20 0 20 -14 1 -8 -11 -12 -24 -9
-28 9 -15 -20 -58 -34 -52 -8 2 -11 0 -8 -5 9 -15 -81 -104 -96 -95 -7 5 -10
4 -6 -2 3 -5 -3 -17 -14 -26 -10 -9 -19 -14 -19 -11 0 4 -12 -2 -27 -12 -16
-10 -44 -26 -63 -36 -19 -10 -42 -22 -50 -27 -59 -34 -204 -61 -326 -61 -117
0 -453 37 -471 51 -16 14 -17 93 0 107 6 5 43 10 82 11 58 1 73 4 92 24 36 35
52 137 63 399 5 130 17 303 25 385 9 81 14 158 11 169 -4 15 -19 25 -50 34
-61 17 -80 40 -73 86 3 20 9 39 12 43 4 3 54 5 112 3 62 -2 103 1 99 6 -3 5 6
14 19 20 14 7 25 16 25 22 0 5 6 10 14 10 7 0 19 6 25 13 8 11 5 17 -16 26
-20 9 -23 15 -14 20 11 7 10 11 -1 20 -95 83 -105 95 -153 201 -30 62 -39 95
-66 235 -22 114 -32 144 -61 175 -11 12 -18 23 -16 26 3 2 27 7 54 10 27 4 56
12 64 18 24 19 148 58 160 51 8 -5 6 -11 -4 -18 -19 -14 -30 -67 -18 -85 7
-10 22 -1 61 37 29 28 56 51 60 51 3 0 19 11 34 25 l27 26 0 149 c0 81 3 155
6 164 4 10 15 -3 36 -42 16 -31 37 -64 46 -73z m-907 -161 c5 -51 -11 -93 -45
-120 -21 -17 -21 -18 14 -18 56 -1 64 -10 57 -71 -4 -29 -12 -58 -19 -65 -18
-17 -127 -54 -160 -54 -26 0 -28 3 -28 37 0 21 -4 33 -8 28 -15 -18 -33 -96
-27 -116 4 -11 1 -27 -6 -36 -11 -13 -10 -17 5 -28 16 -13 14 -15 -30 -28 -37
-11 -53 -12 -63 -3 -8 6 -24 9 -35 8 -30 -4 -56 41 -38 66 22 31 35 71 33 102
-2 23 101 199 121 208 5 2 8 13 8 23 0 44 217 109 221 67z m-2923 -46 c12 -8
22 -21 22 -29 0 -8 5 -11 11 -7 7 4 6 -3 -2 -17 -7 -13 -13 -28 -14 -34 0 -14
-55 -67 -55 -54 0 6 -9 7 -22 4 -16 -6 -20 -4 -15 9 5 12 1 14 -23 9 -19 -3
-30 -1 -30 6 0 6 3 11 8 11 4 0 6 22 5 50 -2 47 3 55 30 51 4 0 7 8 7 19 0 18
3 18 28 8 15 -7 37 -19 50 -26z m2277 -119 c-18 -38 -35 -81 -39 -98 -11 -42
-39 -65 -81 -65 -19 0 -35 4 -35 8 0 21 43 130 59 149 25 30 90 73 111 73 15
0 13 -10 -15 -67z m-1398 -178 c28 -14 31 -19 27 -53 -2 -20 -6 -93 -9 -162
-5 -104 -9 -129 -25 -150 -11 -14 -25 -36 -31 -50 -16 -38 -22 -127 -10 -135
6 -3 11 -17 11 -30 0 -13 4 -25 9 -27 12 -4 17 -69 7 -86 -4 -6 -14 -12 -23
-12 -11 0 -14 6 -9 24 4 16 1 26 -9 30 -8 3 -14 13 -13 23 4 49 -6 73 -48 124
-26 30 -52 55 -58 57 -19 4 -64 -36 -81 -71 -13 -29 -13 -40 0 -102 16 -79 20
-175 6 -175 -5 0 -16 -2 -23 -5 -12 -5 -14 7 -14 57 1 66 -15 119 -47 153 -30
33 -39 3 -31 -105 4 -52 7 -102 6 -110 -2 -21 -11 -152 -11 -170 -1 -10 -4
-11 -12 -3 -7 7 -11 51 -10 109 1 181 -29 289 -65 239 -9 -12 -14 -46 -14
-100 0 -118 -12 -243 -21 -220 -4 11 -7 93 -8 183 -1 139 1 169 18 210 10 26
27 72 36 102 15 48 15 55 2 65 -11 8 -13 16 -6 26 8 12 10 12 19 -1 9 -13 10
-13 10 0 0 8 6 27 14 41 7 15 24 58 36 95 35 107 65 156 116 188 82 52 202 71
261 41z m4857 -252 c14 -29 14 -33 2 -33 -9 0 -13 6 -10 13 3 8 -5 13 -21 15
-14 1 -25 -2 -25 -7 0 -5 -3 -17 -7 -27 -5 -14 -2 -16 19 -12 28 5 28 -1 5
-49 -13 -28 -27 -30 -27 -3 0 13 -10 24 -25 30 -15 6 -25 17 -25 29 0 10 -7
22 -16 25 -14 5 -14 8 0 28 19 27 22 73 4 62 -7 -4 -8 -3 -4 4 5 9 13 9 28 1
17 -9 20 -9 15 4 -19 51 55 -18 87 -80z m-614 -173 c0 -5 7 -10 15 -10 8 0 15
-6 15 -12 0 -28 -13 -58 -24 -58 -6 0 -16 -8 -21 -19 -6 -10 -23 -44 -39 -75
-19 -36 -34 -55 -43 -52 -7 3 -13 -1 -13 -8 0 -17 -30 -55 -82 -106 -21 -20
-38 -40 -38 -45 0 -4 -13 -30 -30 -57 -16 -26 -30 -55 -30 -63 0 -7 -5 -17
-12 -21 -8 -5 -9 0 -5 17 6 23 6 23 -9 4 -8 -11 -18 -33 -21 -50 -6 -25 -7
-27 -14 -10 -6 16 -8 13 -8 -12 -1 -18 -5 -33 -10 -33 -23 0 -21 25 5 86 18
44 30 61 36 52 5 -9 8 -5 8 12 0 24 19 65 20 45 1 -5 7 6 13 25 10 29 17 34
37 32 19 -2 22 0 12 10 -18 18 -15 42 7 57 11 8 16 21 13 33 -4 19 30 58 52
58 6 0 5 5 -2 12 -17 17 -15 48 3 48 8 0 15 -7 15 -15 0 -8 5 -15 11 -15 6 0
9 7 5 15 -3 9 0 15 10 15 11 0 13 6 9 19 -4 13 2 25 20 39 14 11 25 27 25 36
0 13 6 15 28 10 15 -4 30 -12 34 -18 5 -6 8 -2 8 10 0 24 -21 37 -45 28 -8 -4
-15 -2 -15 4 0 6 6 13 13 15 21 9 47 7 47 -3z m-4573 -1016 c-6 -75 9 -98 40
-65 29 31 103 61 155 61 41 0 46 -2 41 -20 -3 -11 -9 -20 -13 -20 -4 0 -12
-10 -17 -23 -8 -18 -25 -26 -69 -36 -122 -27 -190 -73 -229 -154 -24 -51 -25
-51 -25 -19 0 37 20 80 61 132 22 28 27 44 25 83 -1 27 2 53 6 60 3 6 2 19 -3
30 -14 25 -4 48 17 40 14 -5 16 -17 11 -69z m378 -309 c17 -12 45 -28 63 -36
17 -8 32 -17 32 -21 0 -5 9 -8 20 -8 11 0 23 -7 26 -15 4 -8 14 -15 24 -15 19
0 34 -26 24 -42 -4 -6 1 -8 14 -4 11 4 23 2 27 -4 4 -6 14 -9 22 -6 8 3 11 1
8 -4 -3 -6 3 -10 15 -10 11 0 23 -7 26 -15 3 -8 15 -17 25 -20 11 -4 24 -16
29 -28 6 -12 19 -33 30 -47 23 -29 40 -130 22 -130 -7 0 -9 -11 -6 -28 3 -16
-1 -45 -10 -66 -9 -21 -16 -47 -16 -57 0 -21 -3 -22 -51 -12 -29 5 -30 7 -14
15 16 7 14 8 -8 4 -15 -2 -30 1 -33 5 -3 5 -20 9 -37 10 -29 0 -30 1 -9 9 12
5 29 7 37 4 21 -8 19 9 -3 29 -17 16 -46 10 -42 -9 1 -5 -4 -10 -11 -13 -8 -2
-10 2 -6 13 4 9 3 16 -1 16 -4 0 -12 10 -17 22 -6 12 -23 26 -40 31 -16 5 -37
15 -45 22 -36 30 -121 47 -209 43 -90 -5 -123 -16 -176 -62 -50 -43 -52 -39
-33 76 19 121 56 249 82 287 28 40 72 70 126 86 45 14 77 8 115 -20z m-382
-585 c5 -21 31 -27 42 -10 3 6 17 10 30 10 20 0 23 -4 20 -32 -1 -18 -6 -41
-10 -51 -9 -20 -65 -53 -65 -37 0 15 -38 12 -47 -3 -4 -8 -21 -22 -37 -32 -15
-10 -40 -36 -55 -58 -14 -22 -34 -51 -44 -66 -9 -14 -29 -64 -43 -111 -22 -72
-54 -160 -106 -292 -6 -16 -15 -28 -20 -28 -5 0 -4 9 2 19 5 11 10 33 10 50 0
16 5 42 10 57 9 23 8 29 -6 37 -14 8 -13 10 7 21 14 6 26 25 31 46 38 163 126
350 164 350 7 0 26 12 43 26 24 20 31 34 31 63 0 52 32 83 43 41z m165 -111
c32 -59 53 -78 102 -94 56 -18 63 -25 50 -45 -5 -9 -22 -13 -43 -12 -41 3 -67
-18 -67 -55 0 -16 7 -27 20 -30 11 -3 20 -9 20 -13 0 -4 10 -11 23 -15 19 -6
17 -8 -18 -15 -113 -23 -110 -21 -110 -70 0 -39 3 -45 25 -50 14 -3 26 -13 28
-22 3 -13 -10 -18 -65 -23 -75 -8 -138 -29 -129 -44 4 -5 29 -17 56 -26 27 -9
52 -21 55 -26 4 -5 14 -9 24 -9 29 0 46 -26 33 -53 -10 -21 -11 -21 -11 6 -1
31 6 29 -126 27 -95 -2 -135 -10 -135 -30 0 -4 14 -11 30 -15 17 -4 42 -17 55
-30 l25 -22 -46 -7 c-26 -3 -62 -6 -80 -6 -18 0 -39 -3 -48 -6 -20 -8 -21 -34
-2 -34 19 0 29 -30 15 -46 -9 -11 -25 -13 -59 -8 -66 9 -90 -6 -83 -49 l5 -34
-78 -12 c-44 -7 -108 -21 -144 -32 -77 -23 -100 -24 -100 -5 0 24 41 65 94 94
l48 27 3 95 c3 100 27 189 54 198 11 4 12 0 6 -14 -30 -72 -32 -227 -3 -232
22 -4 64 42 93 103 13 28 40 66 60 85 22 22 35 43 35 60 0 16 11 37 26 51 39
36 66 96 59 128 -4 19 0 35 13 52 36 45 63 107 49 112 -16 6 40 117 59 117 8
0 14 -6 14 -14 0 -16 30 -26 83 -26 41 0 45 5 20 32 -15 17 -15 20 8 42 32 32
37 31 57 -5z m-879 -315 c39 -8 40 -22 2 -35 -16 -6 -41 -28 -55 -50 -18 -27
-33 -39 -50 -39 -16 0 -23 -5 -22 -17 1 -22 -32 -31 -115 -32 -48 -1 -68 3
-72 12 -3 8 -33 22 -67 31 -79 22 -74 40 11 44 56 3 68 7 95 33 17 17 51 36
75 44 47 15 146 19 198 9z m2020 -423 c19 -12 1 -21 -56 -27 -73 -8 -82 -9
-90 -18 -4 -4 -3 -10 2 -14 6 -4 16 -17 23 -30 23 -41 2 -52 -104 -52 l-94 0
0 28 c0 15 -7 40 -15 56 -27 51 -18 55 122 59 70 1 144 4 163 5 19 1 41 -2 49
-7z m-1894 -242 c115 -18 221 -71 186 -93 -5 -3 -67 -1 -139 6 -125 11 -131
11 -156 -10 -15 -11 -44 -23 -66 -27 -21 -4 -44 -13 -51 -21 -6 -8 -21 -14
-34 -14 -29 0 -108 -86 -102 -111 4 -13 -7 -23 -46 -39 -27 -12 -60 -24 -73
-26 -12 -2 -44 -13 -69 -24 -64 -27 -93 -26 -107 5 -8 17 -8 28 0 37 5 7 13
40 17 73 17 130 71 190 215 236 63 20 318 24 425 8z"/>
<path d="M5094 3406 c-6 -7 -11 -25 -11 -40 0 -16 -5 -31 -11 -35 -12 -7 -35
-132 -33 -179 1 -18 -2 -31 -6 -29 -5 3 -8 -32 -8 -78 0 -46 -3 -81 -6 -79 -4
2 -6 -25 -4 -61 1 -36 -1 -62 -6 -59 -5 3 -9 1 -9 -5 0 -5 5 -13 10 -16 6 -4
8 -16 4 -27 -3 -11 -8 -41 -10 -67 -2 -25 -7 -66 -10 -90 -5 -34 -3 -46 9 -53
12 -6 14 -18 10 -43 -3 -19 -2 -35 3 -36 25 -2 50 -9 70 -20 13 -6 31 -8 41
-4 10 4 29 9 43 10 53 5 111 26 104 37 -4 6 -3 8 4 4 6 -3 17 1 25 9 9 8 20
15 26 15 5 0 13 10 17 22 8 26 28 48 44 48 6 0 9 4 6 9 -3 5 2 19 12 32 29 38
68 127 93 209 41 140 31 318 -21 365 -11 10 -20 24 -20 31 0 15 -78 74 -98 74
-7 0 -20 7 -28 15 -9 8 -26 15 -38 15 -13 0 -39 6 -57 13 -19 6 -54 12 -79 12
-25 0 -47 3 -50 6 -3 4 -10 1 -16 -5z"/>
<path d="M1970 1639 c-25 -10 -100 -77 -100 -89 0 -11 109 -41 128 -36 9 3 36
10 60 16 l43 11 -3 52 -3 52 -50 2 c-27 1 -61 -2 -75 -8z"/>
</g>
</svg>
