<?xml version="1.0" standalone="no"?>
<!DOCTYPE svg PUBLIC "-//W3C//DTD SVG 20010904//EN"
 "http://www.w3.org/TR/2001/REC-SVG-20010904/DTD/svg10.dtd">
<svg version="1.0" xmlns="http://www.w3.org/2000/svg"
 width="736.000000pt" height="736.000000pt" viewBox="0 0 736.000000 736.000000"
 preserveAspectRatio="xMidYMid meet">
<metadata>
Created by potrace 1.16, written by Peter Selinger 2001-2019
</metadata>
<g transform="translate(0.000000,736.000000) scale(0.100000,-0.100000)"
fill="#000000" stroke="none">
<path d="M0 3680 l0 -3680 3680 0 3680 0 0 3680 0 3680 -3680 0 -3680 0 0
-3680z m4770 3020 c30 -30 40 -63 40 -133 0 -34 5 -69 10 -77 8 -12 10 -11 10
8 0 13 6 22 15 22 8 0 15 -5 15 -11 0 -5 5 -7 10 -4 6 3 10 -1 10 -9 0 -9 5
-16 11 -16 8 0 7 -6 -2 -17 -8 -10 -9 -14 -2 -10 6 4 14 3 18 -3 3 -5 17 -10
30 -10 12 0 25 -6 28 -14 3 -8 26 -24 52 -37 25 -12 57 -38 71 -57 14 -18 29
-31 32 -28 3 4 16 -3 28 -15 13 -12 30 -19 38 -16 9 4 16 1 16 -6 0 -7 16 -25
36 -42 19 -16 45 -40 56 -52 12 -13 29 -23 37 -23 14 0 14 -2 1 -10 -8 -5 -11
-12 -7 -16 4 -4 12 -3 19 4 8 8 17 7 34 -5 31 -20 32 -47 2 -38 -21 5 -21 5
-4 -6 12 -8 25 -8 40 -1 18 8 22 6 22 -9 0 -11 0 -19 -1 -19 -26 2 -209 58
-255 79 -94 42 -170 70 -210 77 l-35 7 28 -30 c15 -16 27 -36 27 -45 0 -25
-86 -95 -144 -117 -58 -22 -73 -15 -96 40 -10 23 -23 32 -56 41 -24 7 -44 17
-44 23 0 5 -25 -17 -55 -50 -44 -47 -58 -57 -65 -45 -5 9 -3 27 6 48 15 37 6
62 -22 62 -19 0 -18 40 2 112 16 56 16 60 -4 112 -11 30 -18 64 -15 75 6 23
-6 27 -26 9 -10 -11 -12 -9 -9 7 2 16 -2 19 -20 17 -20 -3 -21 -1 -11 22 17
36 56 61 74 46 9 -8 14 -7 18 5 11 27 97 1 129 -39 l18 -21 0 27 c0 40 20 128
30 128 4 0 10 -18 13 -41 3 -22 8 -43 11 -46 11 -12 66 39 66 62 0 29 -16 41
-35 25 -18 -15 -45 -6 -45 14 0 8 10 18 21 21 16 6 18 9 8 15 -7 5 -17 6 -21
4 -10 -6 -11 10 -1 19 12 13 33 7 53 -13z m-970 -199 c0 -20 -28 -73 -32 -61
-3 9 -11 11 -24 6 -13 -6 -15 -10 -6 -13 7 -3 24 -16 37 -29 16 -16 36 -24 59
-24 34 0 34 -1 26 -30 -5 -17 -5 -28 0 -25 4 3 10 -2 14 -10 3 -8 0 -15 -7
-16 -7 0 -6 -3 3 -6 8 -4 20 -13 26 -22 10 -13 14 -13 29 -1 15 12 16 11 9
-16 -6 -25 -5 -27 8 -17 8 7 18 10 21 6 4 -3 7 -1 7 6 0 7 9 3 21 -10 11 -13
18 -17 14 -9 -4 10 -2 9 8 -2 8 -10 17 -15 21 -11 3 4 22 -9 42 -28 34 -32 36
-32 29 -9 -7 22 -6 23 9 11 9 -7 16 -10 16 -5 0 5 8 19 18 32 l18 23 -3 -38
-2 -38 10 38 c6 20 14 37 17 36 4 0 29 -27 55 -60 27 -33 59 -64 71 -69 13 -5
26 -15 29 -24 5 -12 1 -13 -25 -4 -23 8 -55 8 -118 0 -129 -18 -434 -16 -449
2 -6 8 -34 24 -62 35 -46 20 -60 21 -175 15 -121 -7 -127 -8 -184 -43 -107
-66 -137 -99 -149 -166 -8 -44 -3 -80 20 -152 3 -8 -61 -35 -186 -77 -105 -35
-216 -75 -246 -89 -69 -30 -168 -122 -214 -197 -46 -76 -63 -128 -129 -388
-30 -119 -163 -647 -295 -1172 -225 -894 -306 -1212 -412 -1622 -24 -92 -46
-162 -50 -156 -5 7 -4 17 1 23 4 5 11 28 14 50 3 22 3 34 0 28 -3 -7 -12 -13
-20 -13 -19 0 -18 49 1 56 24 10 17 24 -11 24 -22 0 -24 2 -14 15 18 21 5 48
-20 40 -16 -5 -20 -2 -20 19 0 14 -5 26 -11 26 -8 0 -7 6 2 17 11 13 12 17 1
21 -7 2 -18 15 -23 29 -5 14 -18 27 -29 30 -11 3 -20 11 -20 18 0 8 -8 16 -17
18 -11 3 -7 5 10 6 19 1 27 5 23 14 -3 6 -9 20 -12 30 -4 9 -10 17 -14 17 -10
0 -32 89 -25 100 3 6 -5 21 -19 35 -15 14 -26 35 -26 45 0 11 -9 29 -19 39
-15 15 -18 28 -14 64 4 37 1 49 -17 67 -12 12 -20 30 -17 40 2 9 -2 55 -10
101 -7 46 -18 111 -23 144 -11 75 -20 105 -31 105 -5 0 -9 18 -9 40 0 22 5 40
10 40 16 0 12 68 -6 95 -11 17 -13 29 -5 42 5 10 12 84 15 163 4 80 8 156 10
170 3 14 5 28 5 33 1 4 7 7 15 7 7 0 16 11 18 25 4 17 1 25 -8 25 -17 0 -18
12 -3 27 11 11 17 70 24 218 3 86 3 85 24 85 11 0 23 6 28 13 9 15 4 50 -9 58
-5 4 -3 13 6 22 9 9 19 42 23 76 3 34 10 61 14 61 5 0 9 18 9 39 0 22 5 41 10
43 6 2 13 26 16 55 5 42 13 57 38 78 26 22 31 32 28 57 -5 33 15 78 34 78 7 0
16 10 20 23 4 12 10 24 13 27 4 3 18 23 31 45 13 22 30 44 37 48 7 4 13 17 13
27 0 10 4 21 8 24 5 3 7 20 5 38 -1 18 0 27 3 21 8 -17 24 -16 24 1 0 8 7 16
15 20 8 3 20 26 26 51 6 25 15 45 20 45 5 0 9 7 9 15 0 9 6 18 13 21 7 2 26
30 43 60 16 31 40 69 54 84 52 59 70 84 70 97 0 7 9 13 19 13 11 0 22 9 26 19
4 12 12 18 21 14 7 -3 14 0 14 5 0 6 9 14 21 17 16 5 19 12 15 31 -5 18 0 30
19 47 54 48 81 75 105 103 14 16 43 39 65 51 22 12 45 30 50 39 17 30 45 55
45 42 0 -7 14 8 30 35 17 26 37 47 45 47 25 0 85 33 85 47 0 7 6 13 14 13 8 0
16 6 19 14 6 15 93 66 113 66 8 0 14 4 14 8 0 10 87 72 100 72 5 0 20 11 32
23 14 14 42 27 66 31 23 3 42 11 42 16 0 6 9 10 20 10 11 0 20 5 20 11 0 13
59 38 101 43 17 1 35 9 40 17 8 12 11 12 20 -1 8 -11 12 -12 16 -2 2 6 14 12
26 12 12 0 28 9 35 20 7 11 19 20 26 20 8 0 16 5 18 11 2 6 20 11 41 11 20 0
37 4 37 9 0 5 9 9 20 9 12 0 31 10 43 23 19 19 34 22 122 25 55 2 108 8 118
13 11 6 17 6 17 -1 0 -5 15 -8 33 -7 17 2 31 8 30 14 -1 6 5 17 14 25 9 7 14
8 10 2 -3 -6 0 -11 7 -11 8 0 12 6 9 14 -3 7 0 13 6 13 6 0 11 -4 11 -9z m382
-459 c18 -8 172 -131 249 -201 28 -25 67 -76 89 -116 36 -66 40 -79 39 -141
-1 -79 -9 -116 -27 -122 -8 -2 -12 12 -13 50 -1 82 -13 142 -38 179 l-22 34 6
-37 c6 -41 -40 -258 -55 -258 -18 0 -21 22 -6 45 24 36 22 166 -3 237 -34 98
-57 119 -30 28 13 -44 7 -74 -21 -110 l-20 -25 12 32 c10 27 9 35 -5 51 -10
11 -26 48 -37 83 l-19 64 5 -75 c3 -42 1 -86 -4 -100 l-11 -25 0 30 c-1 17 -7
41 -14 55 -7 14 -19 48 -27 75 -7 28 -33 79 -56 115 -46 69 -61 119 -41 132
14 9 26 9 49 0z m1495 -225 c5 1 7 -15 6 -35 -3 -33 -2 -34 7 -13 10 23 11 23
30 6 11 -10 20 -30 20 -44 0 -18 3 -22 9 -13 6 11 10 8 14 -10 4 -13 22 -42
42 -65 19 -23 35 -46 35 -52 0 -5 12 -22 26 -37 20 -20 24 -28 14 -34 -10 -6
-6 -14 14 -34 14 -15 26 -36 26 -46 0 -13 7 -20 19 -20 25 0 61 -50 61 -84 0
-20 5 -26 23 -27 l22 -2 -22 -4 c-27 -5 -28 -9 -8 -30 9 -8 19 -28 22 -44 3
-16 9 -29 14 -29 5 0 9 -7 9 -15 0 -9 12 -27 26 -40 19 -17 25 -31 21 -46 -4
-14 2 -29 19 -46 17 -17 24 -35 24 -61 0 -28 3 -33 11 -22 7 11 8 5 4 -21 -7
-37 10 -63 36 -57 7 2 13 -7 14 -22 1 -14 2 -42 3 -63 2 -30 7 -39 28 -47 21
-9 25 -15 20 -35 -4 -14 3 -59 14 -102 11 -42 20 -92 20 -110 0 -26 4 -33 20
-33 23 0 22 4 24 -80 1 -50 8 -76 28 -112 17 -31 22 -48 15 -51 -9 -3 -9 -13
1 -40 7 -20 13 -73 13 -117 0 -44 3 -80 7 -80 16 0 29 -60 24 -109 -3 -37 -1
-51 8 -51 9 0 11 -18 5 -77 -5 -43 -9 -203 -9 -356 -1 -236 -3 -280 -16 -290
-19 -15 -41 -63 -36 -79 3 -7 7 -37 11 -66 4 -40 3 -52 -7 -50 -9 2 -13 -9
-13 -32 0 -19 -6 -45 -12 -57 -8 -14 -13 -62 -13 -132 0 -86 -3 -113 -16 -125
-8 -9 -11 -16 -5 -16 21 0 12 -75 -13 -108 -25 -35 -40 -129 -37 -235 2 -56 2
-57 -25 -57 -26 0 -27 -1 -21 -53 4 -44 2 -55 -13 -65 -16 -10 -63 -127 -59
-148 4 -23 -3 -34 -20 -34 -11 0 -23 -4 -26 -10 -4 -6 5 -10 21 -10 l27 0 -27
-21 c-19 -15 -25 -27 -21 -40 5 -14 1 -19 -14 -19 -12 0 -21 -7 -21 -15 0 -8
5 -15 10 -15 6 0 10 -7 10 -15 0 -18 -16 -20 -23 -2 -3 8 -10 7 -23 -7 -12
-11 -15 -20 -8 -22 13 -6 3 -76 -12 -81 -5 -2 -15 9 -21 24 -10 26 -11 24 -12
-25 -1 -44 -4 -52 -18 -50 -11 2 -19 -5 -21 -17 -5 -23 -31 -55 -45 -55 -6 0
-19 7 -29 17 -26 24 -32 11 -6 -16 l21 -23 -44 6 c-24 3 -77 9 -116 12 l-73 7
-12 38 c-19 67 -63 86 -84 38 -8 -18 -11 -16 -38 17 l-29 37 16 96 c34 199 46
399 31 515 -4 29 -2 57 5 70 9 16 9 38 1 86 -13 76 -14 60 1 180 7 52 11 124
11 160 -1 35 6 92 14 125 9 33 20 98 25 145 6 47 14 121 19 165 5 44 14 181
20 305 8 174 8 235 -1 270 -12 44 -42 105 -60 124 -5 6 -9 27 -9 48 0 28 4 38
16 38 37 0 52 -19 59 -76 4 -32 10 -66 14 -77 6 -17 8 -17 20 -3 8 9 22 16 32
16 42 0 83 150 51 182 -7 7 -30 13 -52 14 -21 1 -59 9 -82 18 l-43 17 3 112
c1 62 7 129 12 150 10 35 13 37 50 37 52 0 118 -27 125 -51 5 -15 10 -17 20
-9 15 12 24 53 35 164 7 70 11 81 36 102 29 22 29 23 12 53 -15 28 -15 30 3
47 23 21 25 47 4 64 -19 16 -19 37 1 48 9 5 17 22 19 38 2 16 7 41 10 55 9 34
-26 74 -78 92 l-38 13 46 32 c33 23 45 38 45 56 0 29 -31 62 -77 81 -38 16
-40 31 -13 85 11 22 20 55 20 74 0 34 -19 56 -90 106 -20 14 -20 18 -9 67 14
59 15 50 -50 278 -37 128 -56 224 -26 130 7 -22 17 -39 22 -38z m-2173 -117
c22 -22 -7 -63 -59 -84 -71 -30 -80 -36 -64 -47 8 -5 25 -9 37 -9 33 0 23 -22
-17 -40 -19 -8 -70 -33 -115 -55 -71 -35 -81 -43 -83 -69 -2 -26 0 -28 30 -23
44 7 132 39 194 71 122 61 283 97 283 62 0 -22 -40 -65 -78 -85 -21 -10 -75
-31 -122 -46 -100 -33 -158 -60 -183 -86 -27 -28 -12 -42 37 -35 49 8 286 116
333 152 40 31 73 92 73 136 l0 33 26 -30 c41 -49 91 -162 129 -293 39 -138 52
-204 39 -201 -5 1 -16 0 -24 -4 -8 -3 -33 -11 -55 -17 -39 -12 -216 -101 -244
-124 -8 -6 -27 -29 -43 -50 -30 -42 -36 -86 -14 -108 7 -8 16 -27 19 -43 4
-17 9 -44 13 -62 3 -18 12 -38 20 -44 11 -9 11 -15 3 -25 -9 -11 -8 -14 5 -14
17 0 18 -3 20 -125 1 -65 -3 -86 -20 -112 l-20 -32 -34 22 c-85 56 -106 59
-156 25 -34 -24 -71 -89 -60 -107 6 -10 -73 -345 -80 -338 -2 2 3 39 11 82 9
43 13 80 11 83 -3 2 -8 -7 -11 -20 -5 -20 -11 -24 -34 -20 -16 2 -32 -1 -35
-7 -4 -6 -21 -8 -39 -5 -27 4 -29 3 -12 -6 17 -9 14 -10 -13 -5 -33 5 -139
-15 -164 -31 -18 -12 -43 -14 -212 -17 -139 -3 -150 -2 -169 18 l-19 20 7 -25
c6 -19 4 -22 -5 -14 -9 9 15 116 99 450 61 242 118 466 126 499 111 446 156
579 228 682 47 66 134 119 227 137 40 7 203 -3 214 -14z m442 -336 c104 -85
152 -193 244 -540 l59 -225 6 -182 c3 -100 7 -218 10 -262 l4 -80 -44 155
c-24 85 -72 256 -106 380 -112 408 -190 684 -210 738 -10 28 -16 52 -13 52 3
0 26 -16 50 -36z m-636 -1576 c0 -13 7 -45 16 -73 71 -229 247 -862 256 -920
10 -64 9 -78 -7 -116 -10 -24 -17 -58 -16 -76 1 -29 -2 -33 -31 -38 -18 -4
-122 -5 -230 -3 l-198 3 -32 33 c-32 31 -33 36 -32 105 1 39 9 101 19 137 9
36 23 94 31 130 8 36 23 99 33 140 11 41 36 145 56 230 20 85 44 182 52 215 9
33 27 104 41 158 23 92 42 125 42 75z m1720 -560 c0 -12 7 -44 15 -72 31 -111
72 -518 61 -615 -5 -41 -1 -70 15 -119 15 -45 20 -78 16 -110 -3 -30 0 -56 9
-74 9 -17 12 -42 8 -71 -5 -32 -2 -51 10 -70 10 -15 13 -28 7 -31 -5 -3 -46
36 -91 88 -44 52 -109 118 -143 147 -89 78 -177 167 -177 179 0 6 -7 13 -15
16 -10 4 -13 13 -9 26 4 13 -2 28 -17 44 l-23 25 19 36 c11 20 19 44 17 54 -4
23 32 140 57 188 11 20 40 79 66 131 63 129 96 184 130 220 34 36 45 38 45 8z
m-1182 -1521 c56 -193 131 -499 125 -514 -4 -10 -2 -14 4 -10 12 8 38 -83 31
-105 -3 -7 -8 7 -13 32 -7 40 -8 42 -15 20 -7 -21 -8 -22 -9 -5 -1 17 -3 17
-11 5 -8 -13 -10 -12 -11 5 -1 19 -2 19 -6 1 -4 -15 -7 -16 -14 -5 -6 10 -9
10 -9 2 0 -7 -5 -13 -10 -13 -6 0 -9 5 -8 12 2 7 -10 15 -27 18 -23 4 -29 10
-27 25 2 17 1 18 -8 5 -9 -13 -12 -13 -20 2 -7 11 -29 19 -68 23 -31 3 -73 13
-92 20 -53 22 -119 36 -180 39 -33 2 -69 11 -90 23 -19 12 -57 24 -83 28 -28
4 -57 15 -68 26 -12 12 -26 18 -34 16 -7 -3 -17 -1 -23 5 -8 8 -15 8 -25 -1
-12 -9 -16 -8 -21 4 -3 8 -17 15 -30 15 -15 0 -30 8 -36 20 -6 11 -17 20 -25
20 -8 0 -15 5 -15 11 0 8 -25 10 -76 7 -41 -2 -70 -2 -64 0 24 8 -14 32 -50
32 -21 0 -41 6 -43 13 -3 6 -6 3 -7 -8 -1 -15 -4 -12 -11 10 -5 17 -6 39 -3
50 l6 20 -16 -20 c-8 -11 -16 -29 -16 -39 0 -11 -3 -17 -6 -13 -8 8 17 117 27
117 5 0 6 7 3 15 -9 22 70 93 109 99 18 3 136 13 262 22 127 8 313 21 415 28
102 8 203 14 226 15 l41 1 21 -73z m1768 -274 c18 -41 18 -123 0 -149 -18 -25
-90 -59 -110 -51 -14 6 -43 59 -60 110 -4 14 12 40 56 93 l63 74 18 -22 c10
-13 25 -37 33 -55z m393 -279 c-14 -26 -17 -40 -9 -52 5 -9 10 -15 10 -12 1 3
3 12 5 20 2 8 11 31 20 50 15 33 16 15 0 -22 -4 -11 -3 -18 4 -18 6 0 11 5 11
12 0 6 3 8 6 5 4 -4 1 -13 -5 -21 -19 -23 7 -31 31 -10 19 18 20 18 34 0 7
-10 16 -24 19 -30 4 -8 6 -8 10 0 8 15 85 -4 92 -22 3 -8 13 -14 23 -14 10 0
23 -7 30 -15 7 -8 17 -15 23 -15 6 0 29 -20 51 -44 25 -26 54 -46 74 -51 18
-4 36 -13 39 -21 3 -8 10 -14 17 -14 6 0 17 -9 24 -20 7 -11 19 -20 27 -20 8
0 15 -9 15 -20 0 -15 7 -20 25 -20 28 0 33 -21 10 -40 -8 -7 -15 -19 -15 -26
0 -8 -4 -14 -10 -14 -5 0 -10 -13 -10 -28 0 -23 4 -28 21 -28 12 1 24 -5 26
-11 3 -8 -4 -13 -16 -13 -18 0 -21 -7 -23 -42 -1 -37 -2 -39 -5 -10 -2 18 -10
32 -17 32 -20 0 -39 -27 -32 -45 4 -11 -2 -15 -24 -15 -26 0 -30 -4 -30 -26 0
-22 -2 -25 -15 -14 -12 10 -18 10 -30 0 -8 -7 -15 -19 -15 -27 0 -10 -6 -12
-20 -8 -15 5 -20 2 -20 -14 0 -30 -19 -36 -29 -9 -7 17 -10 19 -10 6 -1 -10
-6 -18 -12 -18 -6 0 -24 -11 -41 -25 -16 -14 -40 -25 -52 -25 -12 0 -32 -9
-43 -19 -12 -11 -24 -17 -28 -13 -4 4 -13 -2 -21 -12 -11 -16 -16 -17 -29 -6
-13 11 -19 10 -34 -4 -12 -11 -27 -14 -49 -10 -21 4 -32 3 -32 -5 0 -15 -102
-15 -117 0 -9 9 -16 8 -27 -4 -12 -12 -13 -17 -3 -20 6 -3 -5 -6 -26 -6 -23
-1 -36 3 -32 9 3 6 -5 10 -19 10 -34 0 -43 -18 -14 -29 23 -9 22 -9 -7 -16
-16 -4 -36 -8 -42 -11 -9 -2 -13 7 -13 26 0 17 -5 30 -11 30 -5 0 -7 -5 -4
-10 10 -16 -15 -40 -41 -40 -13 0 -24 4 -24 9 0 5 -7 12 -16 15 -12 5 -14 1
-9 -15 6 -18 4 -20 -13 -15 -11 4 -23 2 -27 -4 -11 -18 -22 -10 -30 23 -7 28
-8 29 -12 9 -3 -13 3 -32 12 -42 15 -16 14 -18 -5 -23 -22 -6 -38 8 -18 16 7
3 4 6 -6 6 -16 1 -17 4 -8 13 7 7 12 31 12 54 l0 41 58 -13 c72 -17 210 -18
244 -2 25 12 46 58 27 58 -5 0 -9 -6 -9 -12 0 -9 -3 -8 -9 2 -12 17 -5 31 12
24 7 -2 18 6 26 18 10 18 10 20 0 11 -29 -28 -26 -10 6 39 59 89 78 170 76
329 -1 150 -7 123 80 331 13 31 27 54 31 52 4 -3 -2 -21 -13 -40z m-660 -110
c-12 -15 -11 -16 6 -11 11 3 28 0 39 -8 18 -13 18 -16 2 -55 -28 -71 -13 -140
27 -124 13 4 17 18 17 53 0 93 16 72 71 -91 42 -128 45 -156 20 -236 -11 -39
-21 -77 -21 -86 0 -9 -7 -16 -15 -16 -8 0 -15 8 -15 18 -1 16 -1 16 -11 -1 -9
-16 -14 -14 -49 25 -22 24 -53 70 -70 103 l-32 60 45 -50 c25 -27 48 -47 52
-43 4 4 -15 32 -42 62 l-50 55 -12 125 c-7 69 -10 140 -6 158 8 39 31 78 46
78 7 0 6 -6 -2 -16z m-1352 -590 c424 -6 675 -24 751 -52 48 -19 114 -64 112
-77 -4 -27 139 -83 214 -84 16 -1 26 -4 23 -7 -10 -10 -71 -13 -77 -4 -3 5
-19 11 -35 15 -22 5 -26 4 -15 -4 26 -18 2 -24 -25 -7 -20 13 -30 15 -40 6
-29 -24 -585 -32 -585 -9 0 13 -233 -2 -243 -15 -6 -7 -7 -5 -4 5 6 20 -34 45
-57 36 -10 -4 -16 -1 -16 9 0 11 -6 13 -27 7 -36 -10 -51 -9 -223 12 -80 10
-151 22 -157 28 -7 5 -13 27 -13 48 0 30 -4 39 -17 40 -13 0 -11 3 7 11 l25
11 -35 9 c-52 14 -55 24 -8 27 24 1 44 6 46 11 2 6 11 6 23 0 11 -6 164 -13
376 -16z"/>
</g>
</svg>
